<?xml version="1.0" encoding="utf-8"?>
<!-- Generator: Adobe Illustrator 25.4.1, SVG Export Plug-In . SVG Version: 6.00 Build 0)  -->
<svg version="1.1" id="Capa_1" xmlns="http://www.w3.org/2000/svg" xmlns:xlink="http://www.w3.org/1999/xlink" x="0px" y="0px"
	 viewBox="0 0 387.8 283.3" style="enable-background:new 0 0 387.8 283.3;" xml:space="preserve">
<style type="text/css">
	.st0{fill:#DDDDDD;}
	.st1{fill:#5400D8;}
	.st2{fill:#FFA412;}
	.st3{fill:#141414;}
	.st4{fill:#96DB00;}
	.st5{fill:#FF004F;}
	.st6{fill:#00D895;}
	.st7{fill:#FFC033;}
	.st8{fill:#D21AFF;}
	.st9{fill:#FFFFFF;}
	.st10{opacity:0.3;clip-path:url(#SVGID_00000009561428356750646050000000727541719864975496_);fill:#5400D8;}
	.st11{fill:#D4BFF5;}
	.st12{fill:none;stroke:#AA80EC;stroke-width:12;stroke-miterlimit:10;}
	.st13{fill:#AA80EC;}
	.st14{fill:#7F40E2;}
</style>
<g>
	<g>
		<path class="st3" d="M103.8,156.5c-1.7,8.1-11.4,13.4-19.4,10.1l28.3-28.3c-0.3-0.6-0.7-1.1-1-1.7c-4.8-7.2-12.9-11.8-22.4-11.8
			c-15.4,0-27,11.9-27,27.7c0,15.8,11.7,27.6,27,27.6c13,0,24.1-8.5,26.9-20.9L103.8,156.5z M84.7,138c3.8-1.3,8-1,11.8,1.1l-20,20
			c-0.9-1.8-1.5-4.6-1.5-6.7C75,145.4,78.9,140,84.7,138z"/>
		<path class="st3" d="M122.7,197.3v-65.8h13.6v3.8c3.3-2.9,7.7-4.7,12.1-4.7c12.8,0,22.5,10.1,22.5,23.5c0,13.2-9.9,23.5-22.5,23.5
			c-5,0-9.2-2.1-12.1-4.6v24.2H122.7z M147.4,143c-6.1,0-11.1,5-11.1,11.1s5,11.1,11.1,11.1c6.1,0,11.1-5,11.1-11.1
			S153.5,143,147.4,143z"/>
		<rect x="176" y="109.9" class="st3" width="13.6" height="66.9"/>
		<path class="st3" d="M218.3,177.6c-12.6,0-22.5-10.3-22.5-23.5c0-13.2,9.9-23.5,22.5-23.5c5,0,9.2,2.1,12.1,4.6v-3.7h12.5v45.3
			h-12.5V173C227.1,175.9,222.7,177.6,218.3,177.6z M219.4,143c-6.1,0-11.1,5-11.1,11.1s5,11.1,11.1,11.1c6.1,0,11.1-5,11.1-11.1
			S225.5,143,219.4,143z"/>
		<path class="st3" d="M310.1,176.8v-24.9c0-6.1-2.9-9.4-8.1-9.4c-5.5,0-9.3,4-9.3,9.8v24.6h-12.5v-24.9c0-6.1-2.9-9.4-8.1-9.4
			c-5.5,0-9.3,4.1-9.3,9.9v24.4h-12.5v-45.3H263v3.2c3.3-2.6,7.5-4.1,11.8-4.1c6.2,0,11.5,2.6,14.6,7.3c4.4-5,9.1-7.3,15.2-7.3
			c10.8,0,18,7.7,18,19.1v27.1H310.1z"/>
	</g>
	<polygon class="st1" points="366.3,143.8 332.3,109.8 322.6,119.6 356.6,153.5 322.6,187.5 332.3,197.3 366.3,163.3 376.1,153.5 	
		"/>
	<polygon class="st1" points="18.6,163.3 52.5,197.3 62.3,187.5 28.3,153.5 62.3,119.6 52.5,109.8 18.6,143.8 8.8,153.5 	"/>
</g>
</svg>
