<?xml version="1.0" encoding="utf-8"?>
<!-- Generator: Adobe Illustrator 25.4.1, SVG Export Plug-In . SVG Version: 6.00 Build 0)  -->
<svg version="1.1" id="Capa_1" xmlns="http://www.w3.org/2000/svg" xmlns:xlink="http://www.w3.org/1999/xlink" x="0px" y="0px"
	 viewBox="0 0 387.8 283.3" style="enable-background:new 0 0 387.8 283.3;" xml:space="preserve">
<style type="text/css">
	.st0{fill:#DDDDDD;}
	.st1{fill:#5400D8;}
	.st2{fill:#FFA412;}
	.st3{fill:#141414;}
	.st4{fill:#96DB00;}
	.st5{fill:#FF004F;}
	.st6{fill:#00D895;}
	.st7{fill:#FFC033;}
	.st8{fill:#D21AFF;}
	.st9{fill:#FFFFFF;}
	.st10{opacity:0.3;clip-path:url(#SVGID_00000062872752490453444500000007122382243989676955_);fill:#5400D8;}
	.st11{fill:#D4BFF5;}
	.st12{fill:none;stroke:#AA80EC;stroke-width:12;stroke-miterlimit:10;}
	.st13{fill:#AA80EC;}
	.st14{fill:#7F40E2;}
</style>
<g>
	<g>
		<path class="st9" d="M105.2,144.6c-1.7,8.1-11.4,13.4-19.4,10.1l28.3-28.3c-0.3-0.6-0.7-1.1-1-1.7c-4.8-7.2-12.9-11.8-22.4-11.8
			c-15.4,0-27,11.9-27,27.7c0,15.8,11.7,27.6,27,27.6c13,0,24.1-8.5,26.9-20.9L105.2,144.6z M86.2,126.1c3.8-1.3,8-1,11.8,1.1
			l-20,20c-0.9-1.8-1.5-4.6-1.5-6.7C76.4,133.5,80.4,128.1,86.2,126.1z"/>
		<path class="st9" d="M124.1,185.3v-65.8h13.6v3.8c3.3-2.9,7.7-4.7,12.1-4.7c12.8,0,22.5,10.1,22.5,23.5c0,13.2-9.9,23.5-22.5,23.5
			c-5,0-9.2-2.1-12.1-4.6v24.2H124.1z M148.8,131.1c-6.1,0-11.1,5-11.1,11.1s5,11.1,11.1,11.1c6.1,0,11.1-5,11.1-11.1
			S154.9,131.1,148.8,131.1z"/>
		<rect x="177.4" y="98" class="st9" width="13.6" height="66.9"/>
		<path class="st9" d="M219.8,165.7c-12.6,0-22.5-10.3-22.5-23.5s9.9-23.5,22.5-23.5c5,0,9.2,2.1,12.1,4.6v-3.7h12.5v45.3h-12.5
			v-3.8C228.6,164,224.1,165.7,219.8,165.7z M220.8,131.1c-6.1,0-11.1,5-11.1,11.1s5,11.1,11.1,11.1c6.1,0,11.1-5,11.1-11.1
			S226.9,131.1,220.8,131.1z"/>
		<path class="st9" d="M311.6,164.9V140c0-6.1-2.9-9.4-8.1-9.4c-5.5,0-9.3,4-9.3,9.8v24.6h-12.5V140c0-6.1-2.9-9.4-8.1-9.4
			c-5.5,0-9.3,4.1-9.3,9.9v24.4H252v-45.3h12.5v3.2c3.3-2.6,7.5-4.1,11.8-4.1c6.2,0,11.5,2.6,14.6,7.3c4.4-5,9.1-7.3,15.2-7.3
			c10.8,0,18,7.7,18,19.1v27.1H311.6z"/>
	</g>
	<polygon class="st9" points="367.8,131.9 333.8,97.9 324,107.7 358,141.6 324,175.6 333.8,185.3 367.8,151.4 377.5,141.6 	"/>
	<polygon class="st9" points="20,151.4 54,185.3 63.7,175.6 29.8,141.6 63.7,107.7 54,97.9 20,131.9 10.2,141.6 	"/>
</g>
</svg>
