<?xml version="1.0" encoding="utf-8"?>
<!-- Generator: Adobe Illustrator 25.4.1, SVG Export Plug-In . SVG Version: 6.00 Build 0)  -->
<svg version="1.1" id="Capa_1" xmlns="http://www.w3.org/2000/svg" xmlns:xlink="http://www.w3.org/1999/xlink" x="0px" y="0px"
	 viewBox="0 0 387.8 283.3" style="enable-background:new 0 0 387.8 283.3;" xml:space="preserve">
<style type="text/css">
	.st0{fill:#DDDDDD;}
	.st1{fill:#5400D8;}
	.st2{fill:#FFA412;}
	.st3{fill:#141414;}
	.st4{fill:#96DB00;}
	.st5{fill:#FF004F;}
	.st6{fill:#00D895;}
	.st7{fill:#FFC033;}
	.st8{fill:#D21AFF;}
	.st9{fill:#FFFFFF;}
	.st10{opacity:0.3;clip-path:url(#SVGID_00000080896676116292300920000002401389607708292522_);fill:#5400D8;}
	.st11{fill:#D4BFF5;}
	.st12{fill:none;stroke:#AA80EC;stroke-width:12;stroke-miterlimit:10;}
	.st13{fill:#AA80EC;}
	.st14{fill:#7F40E2;}
</style>
<g>
	<polygon class="st1" points="340.2,119.7 264,43.5 242.1,65.4 318.3,141.6 242.1,217.9 264,239.7 340.2,163.5 362.1,141.6 	"/>
	<polygon class="st1" points="47.6,163.5 123.8,239.7 145.7,217.9 69.5,141.6 145.7,65.4 123.8,43.5 47.6,119.7 25.7,141.6 	"/>
	<path d="M226.5,148.5c-3.9,18.2-25.5,30-43.4,22.8l63.5-63.6c-0.7-1.3-1.5-2.6-2.3-3.8c-10.8-16.3-29-26.6-50.2-26.6
		c-34.5,0-60.7,26.7-60.7,62.2c0,35.5,26.2,61.9,60.7,61.9c29.3,0,54.1-19.1,60.3-46.8L226.5,148.5z M183.7,106.9
		c8.5-2.9,18-2.3,26.4,2.6l-44.9,44.9c-1.9-4.1-3.4-10.3-3.4-15.1C161.8,123.6,170.7,111.3,183.7,106.9z"/>
</g>
</svg>
