<?xml version="1.0" encoding="utf-8"?>
<!-- Generator: Adobe Illustrator 25.4.1, SVG Export Plug-In . SVG Version: 6.00 Build 0)  -->
<svg version="1.1" id="Capa_1" xmlns="http://www.w3.org/2000/svg" xmlns:xlink="http://www.w3.org/1999/xlink" x="0px" y="0px"
	 viewBox="0 0 303 300.7" style="enable-background:new 0 0 303 300.7;" xml:space="preserve">
<style type="text/css">
	.st0{fill:#DDDDDD;}
	.st1{fill:#5400D8;}
	.st2{fill:#FFA412;}
	.st3{fill:#141414;}
	.st4{fill:#96DB00;}
	.st5{fill:#FF004F;}
	.st6{fill:#00D895;}
	.st7{fill:#FFC033;}
	.st8{fill:#D21AFF;}
	.st9{fill:#FFFFFF;}
	.st10{opacity:0.3;clip-path:url(#SVGID_00000047033981876467874930000016597965481502126728_);fill:#5400D8;}
	.st11{opacity:0.3;clip-path:url(#SVGID_00000180338281461040054740000010767988482905855877_);fill:#5400D8;}
	.st12{fill:#D4BFF5;}
	.st13{fill:none;stroke:#AA80EC;stroke-width:12;stroke-miterlimit:10;}
	.st14{fill:#AA80EC;}
	.st15{fill:#7F40E2;}
</style>
<text transform="matrix(1 0 0 1 -1729.277 -4206.1421)" style="font-family:'MusticaPro-SemiBold'; font-size:23.6115px;">Cursos</text>
<text transform="matrix(1 0 0 1 -1604.902 -4206.1421)" style="font-family:'MusticaPro-SemiBold'; font-size:23.6115px;">Convenios</text>
<text transform="matrix(1 0 0 1 -1442.111 -4206.1421)" style="font-family:'MusticaPro-SemiBold'; font-size:23.6115px;">Nosotros</text>
<text transform="matrix(1 0 0 1 -1295.4225 -4206.1421)" style="font-family:'MusticaPro-SemiBold'; font-size:23.6115px;">Blog</text>
<path d="M-1048.3-4208.2c5.6-5.6,5.6-14.6,0-20.2c-5.6-5.6-14.6-5.6-20.2,0c-4.9,4.9-5.5,12.5-1.7,18.1l-11.7,11.7l4.3,4.3
	l11.8-11.8C-1060.3-4202.8-1053-4203.5-1048.3-4208.2z M-1064.6-4212.1c-3.4-3.4-3.4-9,0-12.5s9-3.4,12.5,0s3.4,9,0,12.5
	S-1061.1-4208.7-1064.6-4212.1z"/>
<path class="st0" d="M-811.8-4238.1H-1004c-13.6,0-24.6,11-24.6,24.6l0,0c0,13.6,11,24.6,24.6,24.6h192.2c13.6,0,24.6-11,24.6-24.6
	l0,0C-787.2-4227.1-798.2-4238.1-811.8-4238.1z"/>
<g>
	<path class="st1" d="M-554.1-4233.1c10.8,0,19.6,8.8,19.6,19.6s-8.8,19.6-19.6,19.6h-152.2c-10.8,0-19.6-8.8-19.6-19.6
		s8.8-19.6,19.6-19.6H-554.1 M-554.1-4238.1h-152.2c-13.6,0-24.6,11-24.6,24.6l0,0c0,13.6,11,24.6,24.6,24.6h152.2
		c13.6,0,24.6-11,24.6-24.6l0,0C-529.5-4227.1-540.5-4238.1-554.1-4238.1L-554.1-4238.1z"/>
</g>
<path class="st2" d="M-1590-2641h-491.5c-23,0-41.6-18.6-41.6-41.6v-328.1c0-23,18.6-41.6,41.6-41.6h491.5c23,0,41.6,18.6,41.6,41.6
	v328.1C-1548.4-2659.6-1567-2641-1590-2641z"/>
<path class="st1" d="M-996.6-2641h-491.5c-23,0-41.6-18.6-41.6-41.6v-328.1c0-23,18.6-41.6,41.6-41.6h491.5
	c23,0,41.6,18.6,41.6,41.6v328.1C-955-2659.6-973.6-2641-996.6-2641z"/>
<path class="st0" d="M-403.2-2641h-491.5c-23,0-41.6-18.6-41.6-41.6v-328.1c0-23,18.6-41.6,41.6-41.6h491.5
	c23,0,41.6,18.6,41.6,41.6v328.1C-361.6-2659.6-380.2-2641-403.2-2641z"/>
<rect x="-2058.6" y="-2820.1" width="345.4" height="33.5"/>
<rect x="-2058.6" y="-2749.9" width="281.2" height="16.7"/>
<rect x="-2058.6" y="-2722.7" width="281.2" height="16.7"/>
<rect x="-1464.5" y="-2820.1" width="345.4" height="33.5"/>
<rect x="-1464.5" y="-2749.9" width="281.2" height="16.7"/>
<rect x="-1464.5" y="-2722.7" width="281.2" height="16.7"/>
<rect x="-872.7" y="-2820.1" width="345.4" height="33.5"/>
<rect x="-872.7" y="-2749.9" width="281.2" height="16.7"/>
<rect x="-872.7" y="-2722.7" width="281.2" height="16.7"/>
<g>
	<path class="st3" d="M-2786-3534c-0.9,3.6-4.2,6-7.9,6c-2.2,0-4.1-0.8-5.5-2.2l13.2-7.6c0,0,0,0,0,0l6.2-3.6
		c-2-5.9-7.4-9.9-13.9-9.9c-8.4,0-14.8,6.5-14.8,15.1s6.4,15.1,14.8,15.1c7.1,0,13.2-4.6,14.7-11.4L-2786-3534z M-2801.8-3536.2
		c0-4.8,3.4-8.3,7.9-8.3c1.9,0,3.6,0.6,4.9,1.7l-12.7,7C-2801.7-3535.9-2801.8-3536-2801.8-3536.2z"/>
	<path class="st3" d="M-2775.7-3511.8v-36h7.4v2.1c1.8-1.6,4.2-2.5,6.6-2.5c7,0,12.3,5.5,12.3,12.9c0,7.2-5.4,12.9-12.3,12.9
		c-2.7,0-5-1.2-6.6-2.5v13.2H-2775.7z M-2762.2-3541.4c-3.3,0-6,2.7-6,6s2.7,6,6,6c3.3,0,6-2.7,6-6S-2758.9-3541.4-2762.2-3541.4z"
		/>
	<rect x="-2746.6" y="-3559.5" class="st3" width="7.4" height="36.5"/>
	<path class="st3" d="M-2723.4-3522.5c-6.9,0-12.3-5.6-12.3-12.9c0-7.2,5.4-12.9,12.3-12.9c2.7,0,5,1.2,6.6,2.5v-2h6.8v24.8h-6.8
		v-2.1C-2718.6-3523.4-2721.1-3522.5-2723.4-3522.5z M-2722.9-3541.4c-3.3,0-6,2.7-6,6s2.7,6,6,6c3.3,0,6-2.7,6-6
		S-2719.5-3541.4-2722.9-3541.4z"/>
	<path class="st3" d="M-2673.3-3522.9v-13.6c0-3.3-1.6-5.2-4.4-5.2c-3,0-5.1,2.2-5.1,5.3v13.4h-6.8v-13.6c0-3.3-1.6-5.2-4.4-5.2
		c-3,0-5.1,2.2-5.1,5.4v13.3h-6.8v-24.8h6.8v1.7c1.8-1.4,4.1-2.2,6.4-2.2c3.4,0,6.3,1.4,8,4c2.4-2.7,5-4,8.3-4
		c5.9,0,9.8,4.2,9.8,10.5v14.8H-2673.3z"/>
</g>
<polygon class="st4" points="-2642.6,-3541 -2661.2,-3559.5 -2666.5,-3554.2 -2647.9,-3535.6 -2666.5,-3517.1 -2661.2,-3511.8 
	-2642.6,-3530.3 -2637.3,-3535.6 "/>
<polygon class="st4" points="-2832.6,-3530.3 -2814,-3511.8 -2808.7,-3517.1 -2827.2,-3535.6 -2808.7,-3554.2 -2814,-3559.5 
	-2832.6,-3541 -2837.9,-3535.6 "/>
<g>
	<path class="st3" d="M-2786-3446.9c-0.9,3.6-4.2,6-7.9,6c-2.2,0-4.1-0.8-5.5-2.2l13.2-7.6c0,0,0,0,0,0l6.2-3.6
		c-2-5.9-7.4-9.9-13.9-9.9c-8.4,0-14.8,6.5-14.8,15.1c0,8.6,6.4,15.1,14.8,15.1c7.1,0,13.2-4.6,14.7-11.4L-2786-3446.9z
		 M-2801.8-3449.1c0-4.8,3.4-8.3,7.9-8.3c1.9,0,3.6,0.6,4.9,1.7l-12.7,7C-2801.7-3448.8-2801.8-3448.9-2801.8-3449.1z"/>
	<path class="st3" d="M-2775.7-3424.6v-36h7.4v2.1c1.8-1.6,4.2-2.5,6.6-2.5c7,0,12.3,5.5,12.3,12.9c0,7.2-5.4,12.9-12.3,12.9
		c-2.7,0-5-1.2-6.6-2.5v13.2H-2775.7z M-2762.2-3454.3c-3.3,0-6,2.7-6,6c0,3.3,2.7,6,6,6c3.3,0,6-2.7,6-6
		C-2756.2-3451.5-2758.9-3454.3-2762.2-3454.3z"/>
	<rect x="-2746.6" y="-3472.3" class="st3" width="7.4" height="36.5"/>
	<path class="st3" d="M-2723.4-3435.4c-6.9,0-12.3-5.6-12.3-12.9c0-7.2,5.4-12.9,12.3-12.9c2.7,0,5,1.2,6.6,2.5v-2h6.8v24.8h-6.8
		v-2.1C-2718.6-3436.3-2721.1-3435.4-2723.4-3435.4z M-2722.9-3454.3c-3.3,0-6,2.7-6,6c0,3.3,2.7,6,6,6c3.3,0,6-2.7,6-6
		C-2716.8-3451.5-2719.5-3454.3-2722.9-3454.3z"/>
	<path class="st3" d="M-2673.3-3435.8v-13.6c0-3.3-1.6-5.2-4.4-5.2c-3,0-5.1,2.2-5.1,5.3v13.4h-6.8v-13.6c0-3.3-1.6-5.2-4.4-5.2
		c-3,0-5.1,2.2-5.1,5.4v13.3h-6.8v-24.8h6.8v1.7c1.8-1.4,4.1-2.2,6.4-2.2c3.4,0,6.3,1.4,8,4c2.4-2.7,5-4,8.3-4
		c5.9,0,9.8,4.2,9.8,10.5v14.8H-2673.3z"/>
</g>
<polygon class="st1" points="-2642.6,-3453.8 -2661.2,-3472.4 -2666.5,-3467.1 -2647.9,-3448.5 -2666.5,-3430 -2661.2,-3424.6 
	-2642.6,-3443.2 -2637.3,-3448.5 "/>
<polygon class="st1" points="-2832.6,-3443.2 -2814,-3424.6 -2808.7,-3430 -2827.2,-3448.5 -2808.7,-3467.1 -2814,-3472.4 
	-2832.6,-3453.8 -2837.9,-3448.5 "/>
<g>
	<path class="st3" d="M-2786-3359.7c-0.9,3.6-4.2,6-7.9,6c-2.2,0-4.1-0.8-5.5-2.2l13.2-7.6c0,0,0,0,0,0l6.2-3.6
		c-2-5.9-7.4-9.9-13.9-9.9c-8.4,0-14.8,6.5-14.8,15.1s6.4,15.1,14.8,15.1c7.1,0,13.2-4.6,14.7-11.4L-2786-3359.7z M-2801.8-3361.9
		c0-4.8,3.4-8.3,7.9-8.3c1.9,0,3.6,0.6,4.9,1.7l-12.7,7C-2801.7-3361.7-2801.8-3361.8-2801.8-3361.9z"/>
	<path class="st3" d="M-2775.7-3337.5v-36h7.4v2.1c1.8-1.6,4.2-2.5,6.6-2.5c7,0,12.3,5.5,12.3,12.9c0,7.2-5.4,12.9-12.3,12.9
		c-2.7,0-5-1.2-6.6-2.5v13.2H-2775.7z M-2762.2-3367.1c-3.3,0-6,2.7-6,6s2.7,6,6,6c3.3,0,6-2.7,6-6S-2758.9-3367.1-2762.2-3367.1z"
		/>
	<rect x="-2746.6" y="-3385.2" class="st3" width="7.4" height="36.5"/>
	<path class="st3" d="M-2723.4-3348.2c-6.9,0-12.3-5.6-12.3-12.9s5.4-12.9,12.3-12.9c2.7,0,5,1.2,6.6,2.5v-2h6.8v24.8h-6.8v-2.1
		C-2718.6-3349.2-2721.1-3348.2-2723.4-3348.2z M-2722.9-3367.1c-3.3,0-6,2.7-6,6s2.7,6,6,6c3.3,0,6-2.7,6-6
		S-2719.5-3367.1-2722.9-3367.1z"/>
	<path class="st3" d="M-2673.3-3348.7v-13.6c0-3.3-1.6-5.2-4.4-5.2c-3,0-5.1,2.2-5.1,5.3v13.4h-6.8v-13.6c0-3.3-1.6-5.2-4.4-5.2
		c-3,0-5.1,2.2-5.1,5.4v13.3h-6.8v-24.8h6.8v1.7c1.8-1.4,4.1-2.2,6.4-2.2c3.4,0,6.3,1.4,8,4c2.4-2.7,5-4,8.3-4
		c5.9,0,9.8,4.2,9.8,10.5v14.8H-2673.3z"/>
</g>
<polygon class="st5" points="-2642.6,-3366.7 -2661.2,-3385.3 -2666.5,-3379.9 -2647.9,-3361.4 -2666.5,-3342.8 -2661.2,-3337.5 
	-2642.6,-3356.1 -2637.3,-3361.4 "/>
<polygon class="st5" points="-2832.6,-3356.1 -2814,-3337.5 -2808.7,-3342.8 -2827.2,-3361.4 -2808.7,-3379.9 -2814,-3385.3 
	-2832.6,-3366.7 -2837.9,-3361.4 "/>
<g>
	<path class="st3" d="M-2537.7-3534c-0.9,3.6-4.2,6-7.9,6c-2.2,0-4.1-0.8-5.5-2.2l13.2-7.6c0,0,0,0,0,0l6.2-3.6
		c-2-5.9-7.4-9.9-13.9-9.9c-8.4,0-14.8,6.5-14.8,15.1s6.4,15.1,14.8,15.1c7.1,0,13.2-4.6,14.7-11.4L-2537.7-3534z M-2553.4-3536.2
		c0-4.8,3.4-8.3,7.9-8.3c1.9,0,3.6,0.6,4.9,1.7l-12.7,7C-2553.4-3535.9-2553.4-3536-2553.4-3536.2z"/>
	<path class="st3" d="M-2527.4-3511.8v-36h7.4v2.1c1.8-1.6,4.2-2.5,6.6-2.5c7,0,12.3,5.5,12.3,12.9c0,7.2-5.4,12.9-12.3,12.9
		c-2.7,0-5-1.2-6.6-2.5v13.2H-2527.4z M-2513.9-3541.4c-3.3,0-6,2.7-6,6s2.7,6,6,6c3.3,0,6-2.7,6-6S-2510.5-3541.4-2513.9-3541.4z"
		/>
	<rect x="-2498.2" y="-3559.5" class="st3" width="7.4" height="36.5"/>
	<path class="st3" d="M-2475.1-3522.5c-6.9,0-12.3-5.6-12.3-12.9c0-7.2,5.4-12.9,12.3-12.9c2.7,0,5,1.2,6.6,2.5v-2h6.8v24.8h-6.8
		v-2.1C-2470.3-3523.4-2472.7-3522.5-2475.1-3522.5z M-2474.5-3541.4c-3.3,0-6,2.7-6,6s2.7,6,6,6c3.3,0,6-2.7,6-6
		S-2471.2-3541.4-2474.5-3541.4z"/>
	<path class="st3" d="M-2425-3522.9v-13.6c0-3.3-1.6-5.2-4.4-5.2c-3,0-5.1,2.2-5.1,5.3v13.4h-6.8v-13.6c0-3.3-1.6-5.2-4.4-5.2
		c-3,0-5.1,2.2-5.1,5.4v13.3h-6.8v-24.8h6.8v1.7c1.8-1.4,4.1-2.2,6.4-2.2c3.4,0,6.3,1.4,8,4c2.4-2.7,5-4,8.3-4
		c5.9,0,9.8,4.2,9.8,10.5v14.8H-2425z"/>
</g>
<polygon class="st6" points="-2394.3,-3541 -2412.8,-3559.5 -2418.2,-3554.2 -2399.6,-3535.6 -2418.2,-3517.1 -2412.8,-3511.8 
	-2394.3,-3530.3 -2388.9,-3535.6 "/>
<polygon class="st6" points="-2584.2,-3530.3 -2565.7,-3511.8 -2560.3,-3517.1 -2578.9,-3535.6 -2560.3,-3554.2 -2565.7,-3559.5 
	-2584.2,-3541 -2589.6,-3535.6 "/>
<g>
	<path class="st3" d="M-2537.7-3446.9c-0.9,3.6-4.2,6-7.9,6c-2.2,0-4.1-0.8-5.5-2.2l13.2-7.6c0,0,0,0,0,0l6.2-3.6
		c-2-5.9-7.4-9.9-13.9-9.9c-8.4,0-14.8,6.5-14.8,15.1c0,8.6,6.4,15.1,14.8,15.1c7.1,0,13.2-4.6,14.7-11.4L-2537.7-3446.9z
		 M-2553.4-3449.1c0-4.8,3.4-8.3,7.9-8.3c1.9,0,3.6,0.6,4.9,1.7l-12.7,7C-2553.4-3448.8-2553.4-3448.9-2553.4-3449.1z"/>
	<path class="st3" d="M-2527.4-3424.6v-36h7.4v2.1c1.8-1.6,4.2-2.5,6.6-2.5c7,0,12.3,5.5,12.3,12.9c0,7.2-5.4,12.9-12.3,12.9
		c-2.7,0-5-1.2-6.6-2.5v13.2H-2527.4z M-2513.9-3454.3c-3.3,0-6,2.7-6,6c0,3.3,2.7,6,6,6c3.3,0,6-2.7,6-6
		C-2507.8-3451.5-2510.5-3454.3-2513.9-3454.3z"/>
	<rect x="-2498.2" y="-3472.3" class="st3" width="7.4" height="36.5"/>
	<path class="st3" d="M-2475.1-3435.4c-6.9,0-12.3-5.6-12.3-12.9c0-7.2,5.4-12.9,12.3-12.9c2.7,0,5,1.2,6.6,2.5v-2h6.8v24.8h-6.8
		v-2.1C-2470.3-3436.3-2472.7-3435.4-2475.1-3435.4z M-2474.5-3454.3c-3.3,0-6,2.7-6,6c0,3.3,2.7,6,6,6c3.3,0,6-2.7,6-6
		C-2468.5-3451.5-2471.2-3454.3-2474.5-3454.3z"/>
	<path class="st3" d="M-2425-3435.8v-13.6c0-3.3-1.6-5.2-4.4-5.2c-3,0-5.1,2.2-5.1,5.3v13.4h-6.8v-13.6c0-3.3-1.6-5.2-4.4-5.2
		c-3,0-5.1,2.2-5.1,5.4v13.3h-6.8v-24.8h6.8v1.7c1.8-1.4,4.1-2.2,6.4-2.2c3.4,0,6.3,1.4,8,4c2.4-2.7,5-4,8.3-4
		c5.9,0,9.8,4.2,9.8,10.5v14.8H-2425z"/>
</g>
<polygon class="st7" points="-2394.3,-3453.8 -2412.8,-3472.4 -2418.2,-3467.1 -2399.6,-3448.5 -2418.2,-3430 -2412.8,-3424.6 
	-2394.3,-3443.2 -2388.9,-3448.5 "/>
<polygon class="st7" points="-2584.2,-3443.2 -2565.7,-3424.6 -2560.3,-3430 -2578.9,-3448.5 -2560.3,-3467.1 -2565.7,-3472.4 
	-2584.2,-3453.8 -2589.6,-3448.5 "/>
<g>
	<path class="st3" d="M-2537.7-3359.7c-0.9,3.6-4.2,6-7.9,6c-2.2,0-4.1-0.8-5.5-2.2l13.2-7.6c0,0,0,0,0,0l6.2-3.6
		c-2-5.9-7.4-9.9-13.9-9.9c-8.4,0-14.8,6.5-14.8,15.1s6.4,15.1,14.8,15.1c7.1,0,13.2-4.6,14.7-11.4L-2537.7-3359.7z M-2553.4-3361.9
		c0-4.8,3.4-8.3,7.9-8.3c1.9,0,3.6,0.6,4.9,1.7l-12.7,7C-2553.4-3361.7-2553.4-3361.8-2553.4-3361.9z"/>
	<path class="st3" d="M-2527.4-3337.5v-36h7.4v2.1c1.8-1.6,4.2-2.5,6.6-2.5c7,0,12.3,5.5,12.3,12.9c0,7.2-5.4,12.9-12.3,12.9
		c-2.7,0-5-1.2-6.6-2.5v13.2H-2527.4z M-2513.9-3367.1c-3.3,0-6,2.7-6,6s2.7,6,6,6c3.3,0,6-2.7,6-6S-2510.5-3367.1-2513.9-3367.1z"
		/>
	<rect x="-2498.2" y="-3385.2" class="st3" width="7.4" height="36.5"/>
	<path class="st3" d="M-2475.1-3348.2c-6.9,0-12.3-5.6-12.3-12.9s5.4-12.9,12.3-12.9c2.7,0,5,1.2,6.6,2.5v-2h6.8v24.8h-6.8v-2.1
		C-2470.3-3349.2-2472.7-3348.2-2475.1-3348.2z M-2474.5-3367.1c-3.3,0-6,2.7-6,6s2.7,6,6,6c3.3,0,6-2.7,6-6
		S-2471.2-3367.1-2474.5-3367.1z"/>
	<path class="st3" d="M-2425-3348.7v-13.6c0-3.3-1.6-5.2-4.4-5.2c-3,0-5.1,2.2-5.1,5.3v13.4h-6.8v-13.6c0-3.3-1.6-5.2-4.4-5.2
		c-3,0-5.1,2.2-5.1,5.4v13.3h-6.8v-24.8h6.8v1.7c1.8-1.4,4.1-2.2,6.4-2.2c3.4,0,6.3,1.4,8,4c2.4-2.7,5-4,8.3-4
		c5.9,0,9.8,4.2,9.8,10.5v14.8H-2425z"/>
</g>
<polygon class="st8" points="-2394.3,-3366.7 -2412.8,-3385.3 -2418.2,-3379.9 -2399.6,-3361.4 -2418.2,-3342.8 -2412.8,-3337.5 
	-2394.3,-3356.1 -2388.9,-3361.4 "/>
<polygon class="st8" points="-2584.2,-3356.1 -2565.7,-3337.5 -2560.3,-3342.8 -2578.9,-3361.4 -2560.3,-3379.9 -2565.7,-3385.3 
	-2584.2,-3366.7 -2589.6,-3361.4 "/>
<g>
	<g>
		<path class="st3" d="M-2070.3-4211.9c-0.9,4.4-6.2,7.3-10.6,5.5l15.5-15.5c-0.2-0.3-0.4-0.6-0.6-0.9c-2.6-4-7.1-6.5-12.2-6.5
			c-8.4,0-14.8,6.5-14.8,15.1c0,8.6,6.4,15.1,14.8,15.1c7.1,0,13.2-4.6,14.7-11.4L-2070.3-4211.9z M-2080.7-4222
			c2.1-0.7,4.4-0.5,6.4,0.6l-10.9,10.9c-0.5-1-0.8-2.5-0.8-3.7C-2086.1-4217.9-2083.9-4220.9-2080.7-4222z"/>
		<path class="st3" d="M-2060-4189.6v-36h7.4v2.1c1.8-1.6,4.2-2.5,6.6-2.5c7,0,12.3,5.5,12.3,12.9c0,7.2-5.4,12.9-12.3,12.9
			c-2.7,0-5-1.2-6.6-2.5v13.2H-2060z M-2046.5-4219.2c-3.3,0-6,2.7-6,6c0,3.3,2.7,6,6,6c3.3,0,6-2.7,6-6
			C-2040.5-4216.5-2043.2-4219.2-2046.5-4219.2z"/>
		<rect x="-2030.9" y="-4237.3" class="st3" width="7.4" height="36.5"/>
		<path class="st3" d="M-2007.7-4200.3c-6.9,0-12.3-5.6-12.3-12.9s5.4-12.9,12.3-12.9c2.7,0,5,1.2,6.6,2.5v-2h6.8v24.8h-6.8v-2.1
			C-2002.9-4201.3-2005.4-4200.3-2007.7-4200.3z M-2007.2-4219.2c-3.3,0-6,2.7-6,6c0,3.3,2.7,6,6,6c3.3,0,6-2.7,6-6
			C-2001.1-4216.5-2003.9-4219.2-2007.2-4219.2z"/>
		<path class="st3" d="M-1957.6-4200.8v-13.6c0-3.3-1.6-5.2-4.4-5.2c-3,0-5.1,2.2-5.1,5.3v13.4h-6.8v-13.6c0-3.3-1.6-5.2-4.4-5.2
			c-3,0-5.1,2.2-5.1,5.4v13.3h-6.8v-24.8h6.8v1.7c1.8-1.4,4.1-2.2,6.4-2.2c3.4,0,6.3,1.4,8,4c2.4-2.7,5-4,8.3-4
			c5.9,0,9.8,4.2,9.8,10.5v14.8H-1957.6z"/>
	</g>
	<polygon class="st1" points="-1926.9,-4218.8 -1945.5,-4237.4 -1950.8,-4232 -1932.2,-4213.5 -1950.8,-4194.9 -1945.5,-4189.6 
		-1926.9,-4208.2 -1921.6,-4213.5 	"/>
	<polygon class="st1" points="-2116.9,-4208.2 -2098.3,-4189.6 -2093,-4194.9 -2111.5,-4213.5 -2093,-4232 -2098.3,-4237.4 
		-2116.9,-4218.8 -2122.2,-4213.5 	"/>
</g>
<path class="st0" d="M-1901.9-4387.8H-2167c-18.9,0-34.3,15.3-34.3,34.3v17.9h333.7v-17.9C-1867.6-4372.5-1883-4387.8-1901.9-4387.8
	z"/>
<g>
	<polygon class="st1" points="-2140.2,-4362.1 -2149.8,-4371.7 -2152.6,-4369 -2142.9,-4359.3 -2152.6,-4349.7 -2149.8,-4346.9 
		-2140.2,-4356.5 -2137.4,-4359.3 	"/>
	<polygon class="st1" points="-2177.2,-4356.5 -2167.6,-4346.9 -2164.8,-4349.7 -2174.4,-4359.3 -2164.8,-4369 -2167.6,-4371.7 
		-2177.2,-4362.1 -2180,-4359.3 	"/>
	<path class="st3" d="M-2154.6-4358.4c-0.5,2.3-3.2,3.8-5.5,2.9l8-8c-0.1-0.2-0.2-0.3-0.3-0.5c-1.4-2.1-3.7-3.4-6.4-3.4
		c-4.4,0-7.7,3.4-7.7,7.9c0,4.5,3.3,7.8,7.7,7.8c3.7,0,6.8-2.4,7.6-5.9L-2154.6-4358.4z M-2160-4363.7c1.1-0.4,2.3-0.3,3.3,0.3
		l-5.7,5.7c-0.2-0.5-0.4-1.3-0.4-1.9C-2162.7-4361.6-2161.6-4363.1-2160-4363.7z"/>
</g>
<text transform="matrix(1 0 0 1 -2127.1541 -4353.5176)" style="font-family:'MusticaPro-SemiBold'; font-size:20.7826px;">https://www.eplam.com</text>
<rect x="-2201.3" y="-4335.6" class="st1" width="1918.7" height="58.9"/>
<text transform="matrix(1 0 0 1 -1683.934 -4298.0195)" class="st9" style="font-family:'MusticaPro-SemiBold'; font-size:23.6115px;">Accede a TODOS los cursos disponibles por SÓLO 9.99€ | Cancela cuando quieras</text>
<polygon class="st9" points="-1696.4,-4310.2 -1708.8,-4322.7 -1712.4,-4319.1 -1700,-4306.7 -1712.4,-4294.3 -1708.8,-4290.7 
	-1696.4,-4303.1 -1692.9,-4306.7 "/>
<polygon class="st9" points="-1744.1,-4303.1 -1731.7,-4290.7 -1728.1,-4294.3 -1740.5,-4306.7 -1728.1,-4319.1 -1731.7,-4322.7 
	-1744.1,-4310.2 -1747.6,-4306.7 "/>
<path class="st9" d="M-1714.9-4305.6c-0.6,3-4.2,4.9-7.1,3.7l10.3-10.4c-0.1-0.2-0.2-0.4-0.4-0.6c-1.8-2.6-4.7-4.3-8.2-4.3
	c-5.6,0-9.9,4.3-9.9,10.1s4.3,10.1,9.9,10.1c4.8,0,8.8-3.1,9.8-7.6L-1714.9-4305.6z M-1721.9-4312.3c1.4-0.5,2.9-0.4,4.3,0.4
	l-7.3,7.3c-0.3-0.7-0.6-1.7-0.6-2.5C-1725.5-4309.6-1724-4311.6-1721.9-4312.3z"/>
<text transform="matrix(1 0 0 1 -701.6476 -4206.1421)" class="st1" style="font-family:'MusticaPro-SemiBold'; font-size:23.6115px;">Iniciar Sesión</text>
<path class="st1" d="M-362.3-4238.1h-132.2c-13.6,0-24.6,11-24.6,24.6l0,0c0,13.6,11,24.6,24.6,24.6h132.2c13.6,0,24.6-11,24.6-24.6
	l0,0C-337.8-4227.1-348.8-4238.1-362.3-4238.1z"/>
<text transform="matrix(1 0 0 1 -489.8582 -4206.1421)" class="st9" style="font-family:'MusticaPro-SemiBold'; font-size:23.6115px;">Registrarse</text>
<g>
	
		<rect x="-344.1" y="-4310.5" transform="matrix(0.7071 -0.7071 0.7071 0.7071 2949.7227 -1490.413)" class="st9" width="39.7" height="9.3"/>
	
		<rect x="-344.1" y="-4310.5" transform="matrix(-0.7071 -0.7071 0.7071 -0.7071 2491.1978 -7579.7856)" class="st9" width="39.7" height="9.3"/>
</g>
<g>
	<defs>
		<rect id="SVGID_1_" x="-2200.6" y="-4142.6" width="1917.5" height="860.6"/>
	</defs>
	<clipPath id="SVGID_00000098184616583815027740000004811745325924267174_">
		<use xlink:href="#SVGID_1_"  style="overflow:visible;"/>
	</clipPath>
	<g style="clip-path:url(#SVGID_00000098184616583815027740000004811745325924267174_);">
		
			<image style="overflow:visible;" width="5418" height="3612" xlink:href="../../Downloads/charlesdeluvio-Lks7vei-eAg-unsplash.jpg"  transform="matrix(0.3586 0 0 0.3586 -2213.356 -4236.478)">
		</image>
	</g>
	
		<rect x="-2200.6" y="-4154.9" style="opacity:0.3;clip-path:url(#SVGID_00000098184616583815027740000004811745325924267174_);fill:#5400D8;" width="1917.5" height="896.6"/>
</g>
<g>
	<defs>
		<rect id="SVGID_00000020397494646459245870000011409129490344252580_" x="-150" y="-3185.9" width="1928.5" height="865.6"/>
	</defs>
	<clipPath id="SVGID_00000049907622435538330800000012203851628223926148_">
		<use xlink:href="#SVGID_00000020397494646459245870000011409129490344252580_"  style="overflow:visible;"/>
	</clipPath>
	<g style="clip-path:url(#SVGID_00000049907622435538330800000012203851628223926148_);">
		
			<image style="overflow:visible;" width="5418" height="3612" xlink:href="../../Downloads/charlesdeluvio-Lks7vei-eAg-unsplash.jpg"  transform="matrix(0.3607 0 0 0.3607 -162.8209 -3280.3132)">
		</image>
	</g>
	
		<rect x="-150" y="-3198.2" style="opacity:0.3;clip-path:url(#SVGID_00000049907622435538330800000012203851628223926148_);fill:#5400D8;" width="1928.5" height="901.8"/>
</g>
<text transform="matrix(1 0 0 1 -2056.0583 -3889.0581)"><tspan x="0" y="0" class="st9" style="font-family:'Hellix-Black'; font-size:67.4137px; letter-spacing:2;">COVIERTETE EN</tspan><tspan x="0" y="80.9" class="st9" style="font-family:'Hellix-Black'; font-size:67.4137px; letter-spacing:2;">DESARROLLADOR</tspan><tspan x="0" y="161.8" class="st9" style="font-family:'Hellix-Black'; font-size:67.4137px; letter-spacing:2;">WEB.</tspan></text>
<g>
	<text transform="matrix(1 0 0 1 -1560.8688 -3146.6316)" style="font-family:'Hellix-Black'; font-size:50px; letter-spacing:2;">Últimos cursos publicados</text>
</g>
<g>
	<text transform="matrix(1 0 0 1 -1379.7433 -996.7954)" style="font-family:'Hellix-Black'; font-size:50px; letter-spacing:2;">Categorías</text>
</g>
<g>
	<text transform="matrix(1 0 0 1 -1316.4916 33.574)" style="font-family:'Hellix-Black'; font-size:50px; letter-spacing:2;">FAQ´s</text>
</g>
<g>
	<text transform="matrix(1 0 0 1 -1842.2809 -1965.2887)" style="font-family:'Hellix-Black'; font-size:50px; letter-spacing:2;">Accede a TODOS los cursos las veces que quieras</text>
</g>
<g>
	<text transform="matrix(1 0 0 1 -2056.0583 -3655.7925)"><tspan x="0" y="0" class="st9" style="font-family:'MusticaPro-SemiBold'; font-size:50px;">con nuestro curso de</tspan><tspan x="0" y="60" class="st9" style="font-family:'MusticaPro-SemiBold'; font-size:50px;">6 semanas intensivo.</tspan></text>
</g>
<path class="st2" d="M-1837.6-3533.7h-192.2c-13.6,0-24.6,11-24.6,24.6v0c0,13.6,11,24.6,24.6,24.6h192.2c13.6,0,24.6-11,24.6-24.6
	v0C-1813-3522.7-1824-3533.7-1837.6-3533.7z"/>
<text transform="matrix(1 0 0 1 -2021.9485 -3502.0967)" class="st9" style="font-family:'MusticaPro-SemiBold'; font-size:23.6115px;">Más información</text>
<rect x="-2200.9" y="-2436.3" class="st1" width="1917.6" height="296.7"/>
<g>
	<text transform="matrix(1 0 0 1 -1984.2191 -2231.3318)" class="st9" style="font-family:'MusticaPro-SemiBold'; font-size:50px;">alumnos</text>
</g>
<g>
	<text transform="matrix(1 0 0 1 -1993.9568 -2293.7139)"><tspan x="0" y="0" class="st9" style="font-family:'Hellix-Black'; font-size:50px; letter-spacing:2;">+ de </tspan><tspan x="115.1" y="0" class="st2" style="font-family:'Hellix-Black'; font-size:50px; letter-spacing:1;">3500</tspan></text>
</g>
<g>
	<text transform="matrix(1 0 0 1 -706.4939 -2231.3318)" class="st9" style="font-family:'MusticaPro-SemiBold'; font-size:50px;">cursos</text>
</g>
<g>
	<text transform="matrix(1 0 0 1 -716.2316 -2293.7139)"><tspan x="0" y="0" class="st9" style="font-family:'Hellix-Black'; font-size:50px; letter-spacing:2;">+ de </tspan><tspan x="115.1" y="0" class="st2" style="font-family:'Hellix-Black'; font-size:50px; letter-spacing:2;">80</tspan></text>
</g>
<g>
	<text transform="matrix(1 0 0 1 -1468.6553 -2231.3318)" class="st9" style="font-family:'MusticaPro-SemiBold'; font-size:50px;">horas de aprendizaje</text>
</g>
<text transform="matrix(1 0 0 1 -1573.905 -1905.8169)" class="st1" style="font-family:'MusticaPro-SemiBold'; font-size:32.4459px;">Sin salir de tu casa. Cancela cuando quieras.</text>
<g>
	<text transform="matrix(1 0 0 1 -1345.0833 -2293.7139)"><tspan x="0" y="0" class="st9" style="font-family:'Hellix-Black'; font-size:50px; letter-spacing:2;">+ de </tspan><tspan x="115.1" y="0" class="st2" style="font-family:'Hellix-Black'; font-size:50px; letter-spacing:1;">1800</tspan></text>
</g>
<path class="st12" d="M-1564.2-1205.2h-386.6c-18.7,0-33.9-15.2-33.9-33.9V-1723c0-18.7,15.2-33.9,33.9-33.9h386.6
	c18.7,0,33.9,15.2,33.9,33.9v483.9C-1530.4-1220.4-1545.5-1205.2-1564.2-1205.2z"/>
<path class="st12" d="M-532.8-1205.2h-386.6c-18.7,0-33.9-15.2-33.9-33.9V-1723c0-18.7,15.2-33.9,33.9-33.9h386.6
	c18.7,0,33.9,15.2,33.9,33.9v483.9C-499-1220.4-514.1-1205.2-532.8-1205.2z"/>
<path class="st1" d="M-1037.2-1211.5h-409.3c-18.7,0-33.9-15.2-33.9-33.9v-511.5c0-18.7,15.2-33.9,33.9-33.9h409.3
	c18.7,0,33.9,15.2,33.9,33.9v511.5C-1003.3-1226.6-1018.5-1211.5-1037.2-1211.5z"/>
<g>
	<path class="st2" d="M-1165.7-1316.1h-152.2c-13.6,0-24.6,11-24.6,24.6l0,0c0,13.6,11,24.6,24.6,24.6h152.2
		c13.6,0,24.6-11,24.6-24.6l0,0C-1141.2-1305.1-1152.2-1316.1-1165.7-1316.1z"/>
	<g>
		<text transform="matrix(1 0 0 1 -1305.446 -1284.1621)" style="font-family:'MusticaPro-SemiBold'; font-size:23.6115px;">¡Suscríbete!</text>
	</g>
</g>
<g>
	<path class="st1" d="M-1681.5-1296.1h-152.2c-13.6,0-24.6,11-24.6,24.6l0,0c0,13.6,11,24.6,24.6,24.6h152.2
		c13.6,0,24.6-11,24.6-24.6l0,0C-1656.9-1285.1-1667.9-1296.1-1681.5-1296.1z"/>
	
		<text transform="matrix(1 0 0 1 -1821.1565 -1264.1621)" class="st9" style="font-family:'MusticaPro-SemiBold'; font-size:23.6115px;">¡Suscríbete!</text>
</g>
<g>
	<path class="st1" d="M-650-1296.1h-152.2c-13.6,0-24.6,11-24.6,24.6l0,0c0,13.6,11,24.6,24.6,24.6H-650c13.6,0,24.6-11,24.6-24.6
		l0,0C-625.5-1285.1-636.5-1296.1-650-1296.1z"/>
	
		<text transform="matrix(1 0 0 1 -789.7357 -1264.1621)" class="st9" style="font-family:'MusticaPro-SemiBold'; font-size:23.6115px;">¡Suscríbete!</text>
</g>
<path class="st13" d="M-1037.2-1211.5h-409.3c-18.7,0-33.9-15.2-33.9-33.9v-511.5c0-18.7,15.2-33.9,33.9-33.9h409.3
	c18.7,0,33.9,15.2,33.9,33.9v511.5C-1003.3-1226.6-1018.5-1211.5-1037.2-1211.5z"/>
<path class="st14" d="M-1304-1725.3h-177.7v-29.5c0-20.7,16.8-37.5,37.5-37.5h154.1v53.1C-1290.2-1731.5-1296.4-1725.3-1304-1725.3z
	"/>
<g>
	
		<text transform="matrix(1 0 0 1 -1442.6526 -1749.6027)" class="st9" style="font-family:'MusticaPro-SemiBold'; font-size:30.681px;">Popular</text>
</g>
<text transform="matrix(1 0 0 1 -1313.0042 -1435.1744)" class="st9" style="font-family:'MusticaPro-SemiBold'; font-size:29.5044px;">8,99€/mes</text>
<text transform="matrix(1 0 0 1 -1901.5061 -1415.8965)" style="font-family:'MusticaPro-SemiBold'; font-size:23.6115px;">Acceso a todos los Cursos.</text>
<text transform="matrix(1 0 0 1 -784.2482 -1415.8965)" style="font-family:'MusticaPro-SemiBold'; font-size:23.6115px;">8,33€/mes</text>
<text transform="matrix(1 0 0 1 -1805.6289 -1584.675)" style="font-family:'MusticaPro-SemiBold'; font-size:35.3885px;">1 Mes </text>
<text transform="matrix(1 0 0 1 -1343.1628 -1599.4985)" class="st9" style="font-family:'MusticaPro-SemiBold'; font-size:52.0343px;">3 Meses </text>
<text transform="matrix(1 0 0 1 -802.4652 -1584.675)" style="font-family:'MusticaPro-SemiBold'; font-size:35.3885px;">12 Meses </text>
<text transform="matrix(1 0 0 1 -1854.8315 -1501.2437)" class="st1" style="font-family:'Hellix-Black'; font-size:67.4137px; letter-spacing:2;">9,99€</text>
<text transform="matrix(1 0 0 1 -1392.2136 -1507.313)" class="st9" style="font-family:'Hellix-Black'; font-size:84.0993px; letter-spacing:3;">26,99€</text>
<text transform="matrix(1 0 0 1 -843.3904 -1501.2437)" class="st1" style="font-family:'Hellix-Black'; font-size:67.4137px; letter-spacing:2;">99,99€</text>
<g>
	<rect x="-3271.7" y="-2991.1" class="st1" width="132.1" height="132.1"/>
	<rect x="-3175" y="-2991.1" class="st15" width="132.1" height="132.1"/>
	<rect x="-3078.3" y="-2991.1" class="st14" width="132.1" height="132.1"/>
	<rect x="-2981.6" y="-2991.1" class="st12" width="132.1" height="132.1"/>
	<rect x="-2884.9" y="-2991.1" class="st9" width="132.1" height="132.1"/>
</g>
<g>
	<rect x="-2201.3" y="926.1" class="st1" width="1918.9" height="437.4"/>
	
		<text transform="matrix(1 0 0 1 -2148.3025 1315.8596)" class="st9" style="font-family:'MusticaPro-SemiBold'; font-size:23.6115px;">Política de Privacidad</text>
	<g>
		
			<text transform="matrix(1 0 0 1 -2106.9558 1043.0514)" class="st12" style="font-family:'MusticaPro-SemiBold'; font-size:23.6115px;">Cursos</text>
		
			<text transform="matrix(1 0 0 1 -2106.9558 1093.4506)" class="st12" style="font-family:'MusticaPro-SemiBold'; font-size:23.6115px;">Convenios</text>
		
			<text transform="matrix(1 0 0 1 -2106.9558 1140.7651)" class="st12" style="font-family:'MusticaPro-SemiBold'; font-size:23.6115px;">Nosotros</text>
		
			<text transform="matrix(1 0 0 1 -2106.9558 1186.0031)" class="st12" style="font-family:'MusticaPro-SemiBold'; font-size:23.6115px;">Blog</text>
		
			<text transform="matrix(1 0 0 1 -1835.5291 1043.0514)" class="st12" style="font-family:'MusticaPro-SemiBold'; font-size:23.6115px;">Cursos</text>
		
			<text transform="matrix(1 0 0 1 -1835.5291 1093.4506)" class="st12" style="font-family:'MusticaPro-SemiBold'; font-size:23.6115px;">Convenios</text>
		
			<text transform="matrix(1 0 0 1 -1835.5291 1140.7651)" class="st12" style="font-family:'MusticaPro-SemiBold'; font-size:23.6115px;">Nosotros</text>
		
			<text transform="matrix(1 0 0 1 -1835.5291 1186.0031)" class="st12" style="font-family:'MusticaPro-SemiBold'; font-size:23.6115px;">Blog</text>
		
			<text transform="matrix(1 0 0 1 -1564.1022 1043.0514)" class="st12" style="font-family:'MusticaPro-SemiBold'; font-size:23.6115px;">Cursos</text>
		
			<text transform="matrix(1 0 0 1 -1564.1022 1093.4506)" class="st12" style="font-family:'MusticaPro-SemiBold'; font-size:23.6115px;">Convenios</text>
		
			<text transform="matrix(1 0 0 1 -1564.1022 1140.7651)" class="st12" style="font-family:'MusticaPro-SemiBold'; font-size:23.6115px;">Nosotros</text>
		
			<text transform="matrix(1 0 0 1 -1564.1022 1186.0031)" class="st12" style="font-family:'MusticaPro-SemiBold'; font-size:23.6115px;">Blog</text>
	</g>
	
		<text transform="matrix(1 0 0 1 -1863.2294 1315.8596)" class="st9" style="font-family:'MusticaPro-SemiBold'; font-size:23.6115px;">Condicines de Contratación</text>
	
		<text transform="matrix(1 0 0 1 -1512.7286 1315.8596)" class="st9" style="font-family:'MusticaPro-SemiBold'; font-size:23.6115px;">Politica de Cookies</text>
	
		<text transform="matrix(1 0 0 1 -1258.1367 1315.8596)" class="st9" style="font-family:'MusticaPro-SemiBold'; font-size:23.6115px;">Aviso Legal</text>
	<g>
		
			<rect x="-1314.4" y="853.5" transform="matrix(0.7071 0.7071 -0.7071 0.7071 291.1003 1149.34)" class="st1" width="145.2" height="145.2"/>
		<g>
			<polygon class="st9" points="-1178.2,916.5 -1211.3,883.4 -1220.9,892.9 -1187.7,926.1 -1220.9,959.2 -1211.3,968.7 
				-1178.2,935.6 -1168.6,926.1 			"/>
			<polygon class="st9" points="-1305.5,935.6 -1272.3,968.7 -1262.8,959.2 -1296,926.1 -1262.8,892.9 -1272.3,883.4 -1305.5,916.5 
				-1315,926.1 			"/>
			<path class="st9" d="M-1227.6,929c-1.7,7.9-11.1,13.1-18.9,9.9l27.6-27.7c-0.3-0.6-0.7-1.1-1-1.7c-4.7-7.1-12.6-11.6-21.9-11.6
				c-15,0-26.4,11.6-26.4,27.1c0,15.4,11.4,26.9,26.4,26.9c12.7,0,23.5-8.3,26.3-20.4L-1227.6,929z M-1246.3,911
				c3.7-1.2,7.8-1,11.5,1.1l-19.5,19.6c-0.8-1.8-1.5-4.5-1.5-6.6C-1255.8,918.2-1251.9,912.9-1246.3,911z"/>
		</g>
	</g>
	<path class="st9" d="M-586.2,1083.7c5.6-5.6,5.6-14.6,0-20.2s-14.6-5.6-20.2,0c-4.9,4.9-5.5,12.5-1.7,18.1l-11.7,11.7l4.3,4.3
		l11.8-11.8C-598.3,1089.1-591,1088.5-586.2,1083.7z M-602.5,1079.8c-3.4-3.4-3.4-9,0-12.5c3.4-3.4,9-3.4,12.5,0
		c3.4,3.4,3.4,9,0,12.5S-599.1,1083.3-602.5,1079.8z"/>
	<path class="st9" d="M-349.7,1053.9h-192.2c-13.6,0-24.6,11-24.6,24.6l0,0c0,13.6,11,24.6,24.6,24.6h192.2
		c13.6,0,24.6-11,24.6-24.6l0,0C-325.2,1064.9-336.2,1053.9-349.7,1053.9z"/>
	<g>
		<rect x="-535.1" y="1282.5" class="st9" width="45.2" height="45.2"/>
		<rect x="-452.7" y="1282.5" class="st9" width="45.2" height="45.2"/>
		<rect x="-370.4" y="1282.5" class="st9" width="45.2" height="45.2"/>
	</g>
	<g>
		
			<text transform="matrix(1 0 0 1 -1067.5459 1316.6635)" class="st12" style="font-family:'MusticaPro-SemiBold'; font-size:23.6115px;">© Copyright Eplam 2022</text>
	</g>
</g>
<path class="st2" d="M-1766.4-911.8h-311.3c-24.7,0-44.8,20.1-44.8,44.8v603.7c0,24.7,20.1,44.8,44.8,44.8h311.3
	c24.7,0,44.8-20.1,44.8-44.8V-867C-1721.6-891.8-1741.7-911.8-1766.4-911.8z"/>
<path class="st2" d="M-1312.9-911.8h-311.3c-24.7,0-44.8,20.1-44.8,44.8v603.7c0,24.7,20.1,44.8,44.8,44.8h311.3
	c24.7,0,44.8-20.1,44.8-44.8V-867C-1268.1-891.8-1288.2-911.8-1312.9-911.8z"/>
<path class="st2" d="M-859.4-911.8h-311.3c-24.7,0-44.8,20.1-44.8,44.8v603.7c0,24.7,20.1,44.8,44.8,44.8h311.3
	c24.7,0,44.8-20.1,44.8-44.8V-867C-814.6-891.8-834.7-911.8-859.4-911.8z"/>
<path class="st2" d="M-405.9-911.8h-311.3c-24.7,0-44.8,20.1-44.8,44.8v603.7c0,24.7,20.1,44.8,44.8,44.8h311.3
	c24.7,0,44.8-20.1,44.8-44.8V-867C-361.1-891.8-381.2-911.8-405.9-911.8z"/>
<g>
	<text transform="matrix(1 0 0 1 -2000.9204 -264.9441)" style="font-family:'MusticaPro-SemiBold'; font-size:35.3885px;">Hardware</text>
</g>
<g>
	<text transform="matrix(1 0 0 1 -1583.5342 -264.944)" style="font-family:'MusticaPro-SemiBold'; font-size:35.3885px;">Programación</text>
</g>
<g>
	<text transform="matrix(1 0 0 1 -1139.8179 -264.9441)" style="font-family:'MusticaPro-SemiBold'; font-size:35.3885px;">Ciberseguridad</text>
</g>
<g>
	<text transform="matrix(1 0 0 1 -732.1646 -264.9441)" style="font-family:'MusticaPro-SemiBold'; font-size:35.3885px;">Sistemas Operativos</text>
</g>
<g>
	<g>
		<text transform="matrix(1 0 0 1 -1794.6543 175.0899)" style="font-family:'MusticaPro-SemiBold'; font-size:35.3885px;">¿Habrá Cursos nuevos?</text>
	</g>
	<polygon class="st12" points="-1374.4,159.8 -1393.2,141 -1398.6,146.4 -1379.8,165.2 -1398.6,184 -1393.2,189.4 -1374.4,170.6 
		-1369,165.2 	"/>
	<polygon class="st12" points="-1832.7,170.6 -1813.9,189.4 -1808.6,184 -1827.3,165.2 -1808.6,146.4 -1813.9,141 -1832.7,159.8 
		-1838.1,165.2 	"/>
	<g>
		<text transform="matrix(1 0 0 1 -1794.6543 248.4577)" style="font-family:'MusticaPro-SemiBold'; font-size:35.3885px;">¿Cómo funciona una suscripción en Eplam?</text>
	</g>
	<polygon class="st12" points="-1050.5,233.2 -1069.3,214.4 -1074.7,219.8 -1055.9,238.6 -1074.7,257.3 -1069.3,262.7 
		-1050.5,243.9 -1045.1,238.6 	"/>
	<polygon class="st12" points="-1832.7,243.9 -1813.9,262.7 -1808.6,257.3 -1827.3,238.6 -1808.6,219.8 -1813.9,214.4 
		-1832.7,233.2 -1838.1,238.6 	"/>
	<g>
		<text transform="matrix(1 0 0 1 -1794.6543 321.8256)" style="font-family:'MusticaPro-SemiBold'; font-size:35.3885px;">¿Puedo pagar en otra moneda que no sean Euros y desde otro país?</text>
	</g>
	<polygon class="st12" points="-650.9,306.5 -669.7,287.7 -675.1,293.1 -656.3,311.9 -675.1,330.7 -669.7,336.1 -650.9,317.3 
		-645.5,311.9 	"/>
	<polygon class="st12" points="-1832.7,317.3 -1813.9,336.1 -1808.6,330.7 -1827.3,311.9 -1808.6,293.1 -1813.9,287.7 
		-1832.7,306.5 -1838.1,311.9 	"/>
	<g>
		<text transform="matrix(1 0 0 1 -1794.6543 395.1935)" style="font-family:'MusticaPro-SemiBold'; font-size:35.3885px;">¿Recibire algún título?</text>
	</g>
	<polygon class="st12" points="-1394.4,379.9 -1413.2,361.1 -1418.6,366.5 -1399.8,385.3 -1418.6,404.1 -1413.2,409.5 
		-1394.4,390.7 -1389,385.3 	"/>
	<polygon class="st12" points="-1832.7,390.7 -1813.9,409.5 -1808.6,404.1 -1827.3,385.3 -1808.6,366.5 -1813.9,361.1 
		-1832.7,379.9 -1838.1,385.3 	"/>
	<g>
		<text transform="matrix(1 0 0 1 -1794.6543 468.5613)" style="font-family:'MusticaPro-SemiBold'; font-size:35.3885px;">¿Dónde pido ayuda?</text>
	</g>
	<polygon class="st12" points="-1414.4,453.3 -1433.2,434.5 -1438.6,439.9 -1419.8,458.7 -1438.6,477.4 -1433.2,482.8 -1414.4,464 
		-1409,458.7 	"/>
	<polygon class="st12" points="-1832.7,464 -1813.9,482.8 -1808.6,477.4 -1827.3,458.7 -1808.6,439.9 -1813.9,434.5 -1832.7,453.3 
		-1838.1,458.7 	"/>
	<g>
		<text transform="matrix(1 0 0 1 -1794.6543 541.9292)" style="font-family:'MusticaPro-SemiBold'; font-size:35.3885px;">¿Dónde cancelo mi suscripción?</text>
	</g>
	<polygon class="st12" points="-1245.4,526.6 -1264.2,507.8 -1269.6,513.2 -1250.8,532 -1269.6,550.8 -1264.2,556.2 -1245.4,537.4 
		-1240,532 	"/>
	<polygon class="st12" points="-1832.7,537.4 -1813.9,556.2 -1808.6,550.8 -1827.3,532 -1808.6,513.2 -1813.9,507.8 -1832.7,526.6 
		-1838.1,532 	"/>
	<g>
		<text transform="matrix(1 0 0 1 -1794.6543 615.2971)" style="font-family:'MusticaPro-SemiBold'; font-size:35.3885px;">¿Puedo comprar un solo curso?</text>
	</g>
	<polygon class="st12" points="-1256.3,600 -1275.1,581.2 -1280.5,586.6 -1261.7,605.4 -1280.5,624.2 -1275.1,629.6 -1256.3,610.8 
		-1250.9,605.4 	"/>
	<polygon class="st12" points="-1832.7,610.8 -1813.9,629.6 -1808.6,624.2 -1827.3,605.4 -1808.6,586.6 -1813.9,581.2 -1832.7,600 
		-1838.1,605.4 	"/>
</g>
<g>
	<polygon class="st1" points="682.4,-3573.9 606.2,-3650.1 584.3,-3628.2 660.5,-3552 584.3,-3475.8 606.2,-3453.9 682.4,-3530.1 
		704.3,-3552 	"/>
	<polygon class="st1" points="389.8,-3530.1 466,-3453.9 487.9,-3475.8 411.7,-3552 487.9,-3628.2 466,-3650.1 389.8,-3573.9 
		367.9,-3552 	"/>
	<path d="M568.8-3545.2c-3.9,18.2-25.5,30-43.4,22.8l63.5-63.6c-0.7-1.3-1.5-2.6-2.3-3.8c-10.8-16.3-29-26.6-50.2-26.6
		c-34.5,0-60.7,26.7-60.7,62.2c0,35.5,26.2,61.9,60.7,61.9c29.3,0,54.1-19.1,60.3-46.8L568.8-3545.2z M526-3586.7
		c8.5-2.9,18-2.3,26.4,2.6l-44.9,44.9c-1.9-4.1-3.4-10.3-3.4-15.1C504.1-3570,513-3582.3,526-3586.7z"/>
</g>
<g>
	<path class="st9" d="M77.1-4183.7c-56.4,0-102.2,45.9-102.2,102.2c0,56.4,45.9,102.2,102.2,102.2c56.4,0,102.2-45.9,102.2-102.2
		C179.3-4137.8,133.4-4183.7,77.1-4183.7z M46.6-4062.5c-12.4-9.3-20.4-24.1-20.4-40.7c0-28.1,22.8-50.9,50.9-50.9
		c28.1,0,50.9,22.8,50.9,50.9c0,16.7-8,31.5-20.4,40.7c16,5.5,30,15.2,40.7,27.8c-15.2,23.2-41.5,38.5-71.2,38.5
		c-29.8,0-56-15.3-71.2-38.5C16.6-4047.3,30.6-4057,46.6-4062.5z"/>
</g>
<g>
	
		<rect x="53.4" y="52.2" transform="matrix(0.7071 0.7071 -0.7071 0.7071 150.6678 -63.086)" class="st1" width="196.2" height="196.2"/>
	<g>
		<polygon class="st9" points="237.5,137.5 192.7,92.6 179.8,105.5 224.7,150.3 179.8,195.2 192.7,208 237.5,163.2 250.4,150.3 		
			"/>
		<polygon class="st9" points="65.4,163.2 110.3,208 123.1,195.2 78.3,150.3 123.1,105.5 110.3,92.6 65.4,137.5 52.6,150.3 		"/>
		<path class="st9" d="M170.7,154.3c-2.3,10.7-15,17.6-25.5,13.4l37.3-37.4c-0.4-0.8-0.9-1.5-1.4-2.2c-6.3-9.6-17-15.6-29.5-15.6
			c-20.3,0-35.7,15.7-35.7,36.6c0,20.9,15.4,36.4,35.7,36.4c17.2,0,31.8-11.2,35.5-27.5L170.7,154.3z M145.5,129.9
			c5-1.7,10.6-1.3,15.5,1.5l-26.4,26.4c-1.1-2.4-2-6-2-8.9C132.6,139.7,137.9,132.5,145.5,129.9z"/>
	</g>
</g>
</svg>
