<?xml version="1.0" encoding="utf-8"?>
<!-- Generator: Adobe Illustrator 25.4.1, SVG Export Plug-In . SVG Version: 6.00 Build 0)  -->
<svg version="1.1" id="Capa_1" xmlns="http://www.w3.org/2000/svg" xmlns:xlink="http://www.w3.org/1999/xlink" x="0px" y="0px"
	 viewBox="0 0 387.8 283.3" style="enable-background:new 0 0 387.8 283.3;" xml:space="preserve">
<style type="text/css">
	.st0{fill:#DDDDDD;}
	.st1{fill:#5400D8;}
	.st2{fill:#FFA412;}
	.st3{fill:#141414;}
	.st4{fill:#96DB00;}
	.st5{fill:#FF004F;}
	.st6{fill:#00D895;}
	.st7{fill:#FFC033;}
	.st8{fill:#D21AFF;}
	.st9{fill:#FFFFFF;}
	.st10{opacity:0.3;clip-path:url(#SVGID_00000126321703556338347170000018072584565553400486_);fill:#5400D8;}
	.st11{fill:#D4BFF5;}
	.st12{fill:none;stroke:#AA80EC;stroke-width:12;stroke-miterlimit:10;}
	.st13{fill:#AA80EC;}
	.st14{fill:#7F40E2;}
</style>
<text transform="matrix(1 0 0 1 -1612.4847 16.9436)" style="font-family:'MusticaPro-SemiBold'; font-size:23.6115px;">Cursos</text>
<text transform="matrix(1 0 0 1 -1488.1097 16.9436)" style="font-family:'MusticaPro-SemiBold'; font-size:23.6115px;">Convenios</text>
<text transform="matrix(1 0 0 1 -1325.3187 16.9436)" style="font-family:'MusticaPro-SemiBold'; font-size:23.6115px;">Nosotros</text>
<text transform="matrix(1 0 0 1 -1178.6302 16.9436)" style="font-family:'MusticaPro-SemiBold'; font-size:23.6115px;">Blog</text>
<path d="M-931.5,14.9c5.6-5.6,5.6-14.6,0-20.2s-14.6-5.6-20.2,0c-4.9,4.9-5.5,12.5-1.7,18.1l-11.7,11.7l4.3,4.3l11.8-11.8
	C-943.5,20.3-936.2,19.6-931.5,14.9z M-947.8,11c-3.4-3.4-3.4-9,0-12.5c3.4-3.4,9-3.4,12.5,0c3.4,3.4,3.4,9,0,12.5
	C-938.8,14.4-944.4,14.4-947.8,11z"/>
<path class="st0" d="M-695-15h-192.2c-13.6,0-24.6,11-24.6,24.6v0c0,13.6,11,24.6,24.6,24.6H-695c13.6,0,24.6-11,24.6-24.6v0
	C-670.4-4-681.4-15-695-15z"/>
<g>
	<path class="st1" d="M-437.3-10c10.8,0,19.6,8.8,19.6,19.6c0,10.8-8.8,19.6-19.6,19.6h-152.2c-10.8,0-19.6-8.8-19.6-19.6
		c0-10.8,8.8-19.6,19.6-19.6H-437.3 M-437.3-15h-152.2C-603-15-614-4-614,9.6v0c0,13.6,11,24.6,24.6,24.6h152.2
		c13.6,0,24.6-11,24.6-24.6v0C-412.7-4-423.7-15-437.3-15L-437.3-15z"/>
</g>
<path class="st2" d="M-1473.2,1582.1h-491.5c-23,0-41.6-18.6-41.6-41.6v-328.1c0-23,18.6-41.6,41.6-41.6h491.5
	c23,0,41.6,18.6,41.6,41.6v328.1C-1431.6,1563.5-1450.2,1582.1-1473.2,1582.1z"/>
<path class="st1" d="M-879.8,1582.1h-491.5c-23,0-41.6-18.6-41.6-41.6v-328.1c0-23,18.6-41.6,41.6-41.6h491.5
	c23,0,41.6,18.6,41.6,41.6v328.1C-838.2,1563.5-856.8,1582.1-879.8,1582.1z"/>
<path class="st0" d="M-286.4,1582.1h-491.5c-23,0-41.6-18.6-41.6-41.6v-328.1c0-23,18.6-41.6,41.6-41.6h491.5
	c23,0,41.6,18.6,41.6,41.6v328.1C-244.8,1563.5-263.4,1582.1-286.4,1582.1z"/>
<rect x="-1941.8" y="1403" width="345.4" height="33.5"/>
<rect x="-1941.8" y="1473.2" width="281.2" height="16.7"/>
<rect x="-1941.8" y="1500.4" width="281.2" height="16.7"/>
<rect x="-1347.7" y="1403" width="345.4" height="33.5"/>
<rect x="-1347.7" y="1473.2" width="281.2" height="16.7"/>
<rect x="-1347.7" y="1500.4" width="281.2" height="16.7"/>
<rect x="-755.9" y="1403" width="345.4" height="33.5"/>
<rect x="-755.9" y="1473.2" width="281.2" height="16.7"/>
<rect x="-755.9" y="1500.4" width="281.2" height="16.7"/>
<g>
	<path class="st3" d="M-2669.2,689.1c-0.9,3.6-4.2,6-7.9,6c-2.2,0-4.1-0.8-5.5-2.2l13.2-7.6c0,0,0,0,0,0l6.2-3.6
		c-2-5.9-7.4-9.9-13.9-9.9c-8.4,0-14.8,6.5-14.8,15.1s6.4,15.1,14.8,15.1c7.1,0,13.2-4.6,14.7-11.4L-2669.2,689.1z M-2685,686.9
		c0-4.8,3.4-8.3,7.9-8.3c1.9,0,3.6,0.6,4.9,1.7l-12.7,7C-2684.9,687.2-2685,687-2685,686.9z"/>
	<path class="st3" d="M-2658.9,711.3v-36h7.4v2.1c1.8-1.6,4.2-2.5,6.6-2.5c7,0,12.3,5.5,12.3,12.9c0,7.2-5.4,12.9-12.3,12.9
		c-2.7,0-5-1.2-6.6-2.5v13.2H-2658.9z M-2645.4,681.7c-3.3,0-6,2.7-6,6c0,3.3,2.7,6,6,6c3.3,0,6-2.7,6-6
		C-2639.4,684.4-2642.1,681.7-2645.4,681.7z"/>
	<rect x="-2629.8" y="663.6" class="st3" width="7.4" height="36.5"/>
	<path class="st3" d="M-2606.6,700.6c-6.9,0-12.3-5.6-12.3-12.9c0-7.2,5.4-12.9,12.3-12.9c2.7,0,5,1.2,6.6,2.5v-2h6.8v24.8h-6.8
		v-2.1C-2601.8,699.7-2604.3,700.6-2606.6,700.6z M-2606.1,681.7c-3.3,0-6,2.7-6,6c0,3.3,2.7,6,6,6c3.3,0,6-2.7,6-6
		C-2600,684.4-2602.7,681.7-2606.1,681.7z"/>
	<path class="st3" d="M-2556.5,700.1v-13.6c0-3.3-1.6-5.2-4.4-5.2c-3,0-5.1,2.2-5.1,5.3v13.4h-6.8v-13.6c0-3.3-1.6-5.2-4.4-5.2
		c-3,0-5.1,2.2-5.1,5.4v13.3h-6.8v-24.8h6.8v1.7c1.8-1.4,4.1-2.2,6.4-2.2c3.4,0,6.3,1.4,8,4c2.4-2.7,5-4,8.3-4
		c5.9,0,9.8,4.2,9.8,10.5v14.8H-2556.5z"/>
</g>
<polygon class="st4" points="-2525.8,682.1 -2544.4,663.6 -2549.7,668.9 -2531.1,687.4 -2549.7,706 -2544.4,711.3 -2525.8,692.8 
	-2520.5,687.4 "/>
<polygon class="st4" points="-2715.8,692.8 -2697.2,711.3 -2691.9,706 -2710.4,687.4 -2691.9,668.9 -2697.2,663.6 -2715.8,682.1 
	-2721.1,687.4 "/>
<g>
	<path class="st3" d="M-2669.2,776.2c-0.9,3.6-4.2,6-7.9,6c-2.2,0-4.1-0.8-5.5-2.2l13.2-7.6c0,0,0,0,0,0l6.2-3.6
		c-2-5.9-7.4-9.9-13.9-9.9c-8.4,0-14.8,6.5-14.8,15.1s6.4,15.1,14.8,15.1c7.1,0,13.2-4.6,14.7-11.4L-2669.2,776.2z M-2685,774
		c0-4.8,3.4-8.3,7.9-8.3c1.9,0,3.6,0.6,4.9,1.7l-12.7,7C-2684.9,774.3-2685,774.2-2685,774z"/>
	<path class="st3" d="M-2658.9,798.5v-36h7.4v2.1c1.8-1.6,4.2-2.5,6.6-2.5c7,0,12.3,5.5,12.3,12.9c0,7.2-5.4,12.9-12.3,12.9
		c-2.7,0-5-1.2-6.6-2.5v13.2H-2658.9z M-2645.4,768.8c-3.3,0-6,2.7-6,6c0,3.3,2.7,6,6,6c3.3,0,6-2.7,6-6
		C-2639.4,771.5-2642.1,768.8-2645.4,768.8z"/>
	<rect x="-2629.8" y="750.7" class="st3" width="7.4" height="36.5"/>
	<path class="st3" d="M-2606.6,787.7c-6.9,0-12.3-5.6-12.3-12.9c0-7.2,5.4-12.9,12.3-12.9c2.7,0,5,1.2,6.6,2.5v-2h6.8v24.8h-6.8
		v-2.1C-2601.8,786.8-2604.3,787.7-2606.6,787.7z M-2606.1,768.8c-3.3,0-6,2.7-6,6c0,3.3,2.7,6,6,6c3.3,0,6-2.7,6-6
		C-2600,771.5-2602.7,768.8-2606.1,768.8z"/>
	<path class="st3" d="M-2556.5,787.3v-13.6c0-3.3-1.6-5.2-4.4-5.2c-3,0-5.1,2.2-5.1,5.3v13.4h-6.8v-13.6c0-3.3-1.6-5.2-4.4-5.2
		c-3,0-5.1,2.2-5.1,5.4v13.3h-6.8v-24.8h6.8v1.7c1.8-1.4,4.1-2.2,6.4-2.2c3.4,0,6.3,1.4,8,4c2.4-2.7,5-4,8.3-4
		c5.9,0,9.8,4.2,9.8,10.5v14.8H-2556.5z"/>
</g>
<polygon class="st1" points="-2525.8,769.2 -2544.4,750.7 -2549.7,756 -2531.1,774.6 -2549.7,793.1 -2544.4,798.5 -2525.8,779.9 
	-2520.5,774.6 "/>
<polygon class="st1" points="-2715.8,779.9 -2697.2,798.5 -2691.9,793.1 -2710.4,774.6 -2691.9,756 -2697.2,750.7 -2715.8,769.2 
	-2721.1,774.6 "/>
<g>
	<path class="st3" d="M-2669.2,863.4c-0.9,3.6-4.2,6-7.9,6c-2.2,0-4.1-0.8-5.5-2.2l13.2-7.6c0,0,0,0,0,0l6.2-3.6
		c-2-5.9-7.4-9.9-13.9-9.9c-8.4,0-14.8,6.5-14.8,15.1c0,8.6,6.4,15.1,14.8,15.1c7.1,0,13.2-4.6,14.7-11.4L-2669.2,863.4z
		 M-2685,861.1c0-4.8,3.4-8.3,7.9-8.3c1.9,0,3.6,0.6,4.9,1.7l-12.7,7C-2684.9,861.4-2685,861.3-2685,861.1z"/>
	<path class="st3" d="M-2658.9,885.6v-36h7.4v2.1c1.8-1.6,4.2-2.5,6.6-2.5c7,0,12.3,5.5,12.3,12.9c0,7.2-5.4,12.9-12.3,12.9
		c-2.7,0-5-1.2-6.6-2.5v13.2H-2658.9z M-2645.4,856c-3.3,0-6,2.7-6,6c0,3.3,2.7,6,6,6c3.3,0,6-2.7,6-6
		C-2639.4,858.7-2642.1,856-2645.4,856z"/>
	<rect x="-2629.8" y="837.9" class="st3" width="7.4" height="36.5"/>
	<path class="st3" d="M-2606.6,874.9c-6.9,0-12.3-5.6-12.3-12.9c0-7.2,5.4-12.9,12.3-12.9c2.7,0,5,1.2,6.6,2.5v-2h6.8v24.8h-6.8
		v-2.1C-2601.8,873.9-2604.3,874.9-2606.6,874.9z M-2606.1,856c-3.3,0-6,2.7-6,6c0,3.3,2.7,6,6,6c3.3,0,6-2.7,6-6
		C-2600,858.7-2602.7,856-2606.1,856z"/>
	<path class="st3" d="M-2556.5,874.4v-13.6c0-3.3-1.6-5.2-4.4-5.2c-3,0-5.1,2.2-5.1,5.3v13.4h-6.8v-13.6c0-3.3-1.6-5.2-4.4-5.2
		c-3,0-5.1,2.2-5.1,5.4v13.3h-6.8v-24.8h6.8v1.7c1.8-1.4,4.1-2.2,6.4-2.2c3.4,0,6.3,1.4,8,4c2.4-2.7,5-4,8.3-4
		c5.9,0,9.8,4.2,9.8,10.5v14.8H-2556.5z"/>
</g>
<polygon class="st5" points="-2525.8,856.4 -2544.4,837.8 -2549.7,843.1 -2531.1,861.7 -2549.7,880.3 -2544.4,885.6 -2525.8,867 
	-2520.5,861.7 "/>
<polygon class="st5" points="-2715.8,867 -2697.2,885.6 -2691.9,880.3 -2710.4,861.7 -2691.9,843.1 -2697.2,837.8 -2715.8,856.4 
	-2721.1,861.7 "/>
<g>
	<path class="st3" d="M-2420.9,689.1c-0.9,3.6-4.2,6-7.9,6c-2.2,0-4.1-0.8-5.5-2.2l13.2-7.6c0,0,0,0,0,0l6.2-3.6
		c-2-5.9-7.4-9.9-13.9-9.9c-8.4,0-14.8,6.5-14.8,15.1s6.4,15.1,14.8,15.1c7.1,0,13.2-4.6,14.7-11.4L-2420.9,689.1z M-2436.6,686.9
		c0-4.8,3.4-8.3,7.9-8.3c1.9,0,3.6,0.6,4.9,1.7l-12.7,7C-2436.6,687.2-2436.6,687-2436.6,686.9z"/>
	<path class="st3" d="M-2410.6,711.3v-36h7.4v2.1c1.8-1.6,4.2-2.5,6.6-2.5c7,0,12.3,5.5,12.3,12.9c0,7.2-5.4,12.9-12.3,12.9
		c-2.7,0-5-1.2-6.6-2.5v13.2H-2410.6z M-2397.1,681.7c-3.3,0-6,2.7-6,6c0,3.3,2.7,6,6,6c3.3,0,6-2.7,6-6
		C-2391,684.4-2393.8,681.7-2397.1,681.7z"/>
	<rect x="-2381.5" y="663.6" class="st3" width="7.4" height="36.5"/>
	<path class="st3" d="M-2358.3,700.6c-6.9,0-12.3-5.6-12.3-12.9c0-7.2,5.4-12.9,12.3-12.9c2.7,0,5,1.2,6.6,2.5v-2h6.8v24.8h-6.8
		v-2.1C-2353.5,699.7-2355.9,700.6-2358.3,700.6z M-2357.7,681.7c-3.3,0-6,2.7-6,6c0,3.3,2.7,6,6,6c3.3,0,6-2.7,6-6
		C-2351.7,684.4-2354.4,681.7-2357.7,681.7z"/>
	<path class="st3" d="M-2308.2,700.1v-13.6c0-3.3-1.6-5.2-4.4-5.2c-3,0-5.1,2.2-5.1,5.3v13.4h-6.8v-13.6c0-3.3-1.6-5.2-4.4-5.2
		c-3,0-5.1,2.2-5.1,5.4v13.3h-6.8v-24.8h6.8v1.7c1.8-1.4,4.1-2.2,6.4-2.2c3.4,0,6.3,1.4,8,4c2.4-2.7,5-4,8.3-4
		c5.9,0,9.8,4.2,9.8,10.5v14.8H-2308.2z"/>
</g>
<polygon class="st6" points="-2277.5,682.1 -2296,663.6 -2301.4,668.9 -2282.8,687.4 -2301.4,706 -2296,711.3 -2277.5,692.8 
	-2272.2,687.4 "/>
<polygon class="st6" points="-2467.4,692.8 -2448.9,711.3 -2443.6,706 -2462.1,687.4 -2443.6,668.9 -2448.9,663.6 -2467.4,682.1 
	-2472.8,687.4 "/>
<g>
	<path class="st3" d="M-2420.9,776.2c-0.9,3.6-4.2,6-7.9,6c-2.2,0-4.1-0.8-5.5-2.2l13.2-7.6c0,0,0,0,0,0l6.2-3.6
		c-2-5.9-7.4-9.9-13.9-9.9c-8.4,0-14.8,6.5-14.8,15.1s6.4,15.1,14.8,15.1c7.1,0,13.2-4.6,14.7-11.4L-2420.9,776.2z M-2436.6,774
		c0-4.8,3.4-8.3,7.9-8.3c1.9,0,3.6,0.6,4.9,1.7l-12.7,7C-2436.6,774.3-2436.6,774.2-2436.6,774z"/>
	<path class="st3" d="M-2410.6,798.5v-36h7.4v2.1c1.8-1.6,4.2-2.5,6.6-2.5c7,0,12.3,5.5,12.3,12.9c0,7.2-5.4,12.9-12.3,12.9
		c-2.7,0-5-1.2-6.6-2.5v13.2H-2410.6z M-2397.1,768.8c-3.3,0-6,2.7-6,6c0,3.3,2.7,6,6,6c3.3,0,6-2.7,6-6
		C-2391,771.5-2393.8,768.8-2397.1,768.8z"/>
	<rect x="-2381.5" y="750.7" class="st3" width="7.4" height="36.5"/>
	<path class="st3" d="M-2358.3,787.7c-6.9,0-12.3-5.6-12.3-12.9c0-7.2,5.4-12.9,12.3-12.9c2.7,0,5,1.2,6.6,2.5v-2h6.8v24.8h-6.8
		v-2.1C-2353.5,786.8-2355.9,787.7-2358.3,787.7z M-2357.7,768.8c-3.3,0-6,2.7-6,6c0,3.3,2.7,6,6,6c3.3,0,6-2.7,6-6
		C-2351.7,771.5-2354.4,768.8-2357.7,768.8z"/>
	<path class="st3" d="M-2308.2,787.3v-13.6c0-3.3-1.6-5.2-4.4-5.2c-3,0-5.1,2.2-5.1,5.3v13.4h-6.8v-13.6c0-3.3-1.6-5.2-4.4-5.2
		c-3,0-5.1,2.2-5.1,5.4v13.3h-6.8v-24.8h6.8v1.7c1.8-1.4,4.1-2.2,6.4-2.2c3.4,0,6.3,1.4,8,4c2.4-2.7,5-4,8.3-4
		c5.9,0,9.8,4.2,9.8,10.5v14.8H-2308.2z"/>
</g>
<polygon class="st7" points="-2277.5,769.2 -2296,750.7 -2301.4,756 -2282.8,774.6 -2301.4,793.1 -2296,798.5 -2277.5,779.9 
	-2272.2,774.6 "/>
<polygon class="st7" points="-2467.4,779.9 -2448.9,798.5 -2443.6,793.1 -2462.1,774.6 -2443.6,756 -2448.9,750.7 -2467.4,769.2 
	-2472.8,774.6 "/>
<g>
	<path class="st3" d="M-2420.9,863.4c-0.9,3.6-4.2,6-7.9,6c-2.2,0-4.1-0.8-5.5-2.2l13.2-7.6c0,0,0,0,0,0l6.2-3.6
		c-2-5.9-7.4-9.9-13.9-9.9c-8.4,0-14.8,6.5-14.8,15.1c0,8.6,6.4,15.1,14.8,15.1c7.1,0,13.2-4.6,14.7-11.4L-2420.9,863.4z
		 M-2436.6,861.1c0-4.8,3.4-8.3,7.9-8.3c1.9,0,3.6,0.6,4.9,1.7l-12.7,7C-2436.6,861.4-2436.6,861.3-2436.6,861.1z"/>
	<path class="st3" d="M-2410.6,885.6v-36h7.4v2.1c1.8-1.6,4.2-2.5,6.6-2.5c7,0,12.3,5.5,12.3,12.9c0,7.2-5.4,12.9-12.3,12.9
		c-2.7,0-5-1.2-6.6-2.5v13.2H-2410.6z M-2397.1,856c-3.3,0-6,2.7-6,6c0,3.3,2.7,6,6,6c3.3,0,6-2.7,6-6
		C-2391,858.7-2393.8,856-2397.1,856z"/>
	<rect x="-2381.5" y="837.9" class="st3" width="7.4" height="36.5"/>
	<path class="st3" d="M-2358.3,874.9c-6.9,0-12.3-5.6-12.3-12.9c0-7.2,5.4-12.9,12.3-12.9c2.7,0,5,1.2,6.6,2.5v-2h6.8v24.8h-6.8
		v-2.1C-2353.5,873.9-2355.9,874.9-2358.3,874.9z M-2357.7,856c-3.3,0-6,2.7-6,6c0,3.3,2.7,6,6,6c3.3,0,6-2.7,6-6
		C-2351.7,858.7-2354.4,856-2357.7,856z"/>
	<path class="st3" d="M-2308.2,874.4v-13.6c0-3.3-1.6-5.2-4.4-5.2c-3,0-5.1,2.2-5.1,5.3v13.4h-6.8v-13.6c0-3.3-1.6-5.2-4.4-5.2
		c-3,0-5.1,2.2-5.1,5.4v13.3h-6.8v-24.8h6.8v1.7c1.8-1.4,4.1-2.2,6.4-2.2c3.4,0,6.3,1.4,8,4c2.4-2.7,5-4,8.3-4
		c5.9,0,9.8,4.2,9.8,10.5v14.8H-2308.2z"/>
</g>
<polygon class="st8" points="-2277.5,856.4 -2296,837.8 -2301.4,843.1 -2282.8,861.7 -2301.4,880.3 -2296,885.6 -2277.5,867 
	-2272.2,861.7 "/>
<polygon class="st8" points="-2467.4,867 -2448.9,885.6 -2443.6,880.3 -2462.1,861.7 -2443.6,843.1 -2448.9,837.8 -2467.4,856.4 
	-2472.8,861.7 "/>
<g>
	<g>
		<path class="st3" d="M-1953.5,11.2c-0.9,4.4-6.2,7.3-10.6,5.5l15.5-15.5c-0.2-0.3-0.4-0.6-0.6-0.9c-2.6-4-7.1-6.5-12.2-6.5
			c-8.4,0-14.8,6.5-14.8,15.1c0,8.6,6.4,15.1,14.8,15.1c7.1,0,13.2-4.6,14.7-11.4L-1953.5,11.2z M-1963.9,1.1
			c2.1-0.7,4.4-0.5,6.4,0.6l-10.9,10.9c-0.5-1-0.8-2.5-0.8-3.7C-1969.3,5.2-1967.1,2.2-1963.9,1.1z"/>
		<path class="st3" d="M-1943.2,33.5v-36h7.4v2.1c1.8-1.6,4.2-2.5,6.6-2.5c7,0,12.3,5.5,12.3,12.9c0,7.2-5.4,12.9-12.3,12.9
			c-2.7,0-5-1.2-6.6-2.5v13.2H-1943.2z M-1929.7,3.9c-3.3,0-6,2.7-6,6s2.7,6,6,6c3.3,0,6-2.7,6-6S-1926.4,3.9-1929.7,3.9z"/>
		<rect x="-1914.1" y="-14.2" class="st3" width="7.4" height="36.5"/>
		<path class="st3" d="M-1891,22.8c-6.9,0-12.3-5.6-12.3-12.9s5.4-12.9,12.3-12.9c2.7,0,5,1.2,6.6,2.5v-2h6.8v24.8h-6.8v-2.1
			C-1886.2,21.8-1888.6,22.8-1891,22.8z M-1890.4,3.9c-3.3,0-6,2.7-6,6s2.7,6,6,6c3.3,0,6-2.7,6-6S-1887.1,3.9-1890.4,3.9z"/>
		<path class="st3" d="M-1840.8,22.3V8.7c0-3.3-1.6-5.2-4.4-5.2c-3,0-5.1,2.2-5.1,5.3v13.4h-6.8V8.7c0-3.3-1.6-5.2-4.4-5.2
			c-3,0-5.1,2.2-5.1,5.4v13.3h-6.8V-2.5h6.8v1.7c1.8-1.4,4.1-2.2,6.4-2.2c3.4,0,6.3,1.4,8,4c2.4-2.7,5-4,8.3-4
			c5.9,0,9.8,4.2,9.8,10.5v14.8H-1840.8z"/>
	</g>
	<polygon class="st1" points="-1810.1,4.3 -1828.7,-14.3 -1834,-9 -1815.5,9.6 -1834,28.2 -1828.7,33.5 -1810.1,14.9 -1804.8,9.6 	
		"/>
	<polygon class="st1" points="-2000.1,14.9 -1981.5,33.5 -1976.2,28.2 -1994.8,9.6 -1976.2,-9 -1981.5,-14.3 -2000.1,4.3 
		-2005.4,9.6 	"/>
</g>
<path class="st0" d="M-1785.1-164.7h-265.1c-18.9,0-34.3,15.3-34.3,34.3v17.9h333.7v-17.9C-1750.8-149.4-1766.2-164.7-1785.1-164.7z
	"/>
<g>
	<polygon class="st1" points="-2023.4,-139 -2033,-148.6 -2035.8,-145.9 -2026.2,-136.2 -2035.8,-126.6 -2033,-123.8 
		-2023.4,-133.5 -2020.6,-136.2 	"/>
	<polygon class="st1" points="-2060.4,-133.5 -2050.8,-123.8 -2048,-126.6 -2057.6,-136.2 -2048,-145.9 -2050.8,-148.6 
		-2060.4,-139 -2063.2,-136.2 	"/>
	<path class="st3" d="M-2037.8-135.4c-0.5,2.3-3.2,3.8-5.5,2.9l8-8c-0.1-0.2-0.2-0.3-0.3-0.5c-1.4-2.1-3.7-3.4-6.4-3.4
		c-4.4,0-7.7,3.4-7.7,7.9c0,4.5,3.3,7.8,7.7,7.8c3.7,0,6.8-2.4,7.6-5.9L-2037.8-135.4z M-2043.2-140.6c1.1-0.4,2.3-0.3,3.3,0.3
		l-5.7,5.7c-0.2-0.5-0.4-1.3-0.4-1.9C-2046-138.5-2044.8-140.1-2043.2-140.6z"/>
</g>
<text transform="matrix(1 0 0 1 -2010.3618 -130.4318)" style="font-family:'MusticaPro-SemiBold'; font-size:20.7826px;">https://www.eplam.com</text>
<rect x="-2084.5" y="-112.5" class="st1" width="1918.7" height="58.9"/>
<text transform="matrix(1 0 0 1 -1567.1417 -74.9336)" class="st9" style="font-family:'MusticaPro-SemiBold'; font-size:23.6115px;">Accede a TODOS los cursos disponibles por SÓLO 9.99€ | Cancela cuando quieras</text>
<polygon class="st9" points="-1579.6,-87.2 -1592,-99.6 -1595.6,-96 -1583.2,-83.6 -1595.6,-71.2 -1592,-67.6 -1579.6,-80 
	-1576.1,-83.6 "/>
<polygon class="st9" points="-1627.3,-80 -1614.9,-67.6 -1611.3,-71.2 -1623.7,-83.6 -1611.3,-96 -1614.9,-99.6 -1627.3,-87.2 
	-1630.8,-83.6 "/>
<path class="st9" d="M-1598.1-82.5c-0.6,3-4.2,4.9-7.1,3.7l10.3-10.4c-0.1-0.2-0.2-0.4-0.4-0.6c-1.8-2.6-4.7-4.3-8.2-4.3
	c-5.6,0-9.9,4.3-9.9,10.1c0,5.8,4.3,10.1,9.9,10.1c4.8,0,8.8-3.1,9.8-7.6L-1598.1-82.5z M-1605.1-89.2c1.4-0.5,2.9-0.4,4.3,0.4
	l-7.3,7.3c-0.3-0.7-0.6-1.7-0.6-2.5C-1608.7-86.5-1607.2-88.5-1605.1-89.2z"/>
<text transform="matrix(1 0 0 1 -584.8555 16.9435)" class="st1" style="font-family:'MusticaPro-SemiBold'; font-size:23.6115px;">Iniciar Sesión</text>
<path class="st1" d="M-245.5-15h-132.2c-13.6,0-24.6,11-24.6,24.6v0c0,13.6,11,24.6,24.6,24.6h132.2c13.6,0,24.6-11,24.6-24.6v0
	C-221-4-232-15-245.5-15z"/>
<text transform="matrix(1 0 0 1 -373.0659 16.9435)" class="st9" style="font-family:'MusticaPro-SemiBold'; font-size:23.6115px;">Registrarse</text>
<g>
	
		<rect x="-227.3" y="-87.4" transform="matrix(0.7071 -0.7071 0.7071 0.7071 -2.2422 -170.9152)" class="st9" width="39.7" height="9.3"/>
	
		<rect x="-227.3" y="-87.4" transform="matrix(-0.7071 -0.7071 0.7071 -0.7071 -295.5981 -287.9428)" class="st9" width="39.7" height="9.3"/>
</g>
<g>
	<defs>
		<rect id="SVGID_1_" x="-2083.8" y="80.5" width="1917.5" height="860.6"/>
	</defs>
	<clipPath id="SVGID_00000129195529923796709910000003019621340185400980_">
		<use xlink:href="#SVGID_1_"  style="overflow:visible;"/>
	</clipPath>
	
		<g transform="matrix(1 0 0 1 0 -9.536743e-07)" style="clip-path:url(#SVGID_00000129195529923796709910000003019621340185400980_);">
		
			<image style="overflow:visible;" width="5418" height="3612" xlink:href="../../Downloads/charlesdeluvio-Lks7vei-eAg-unsplash.jpg"  transform="matrix(0.3586 0 0 0.3586 -2096.5637 -13.3924)">
		</image>
	</g>
	
		<rect x="-2083.8" y="68.2" style="opacity:0.3;clip-path:url(#SVGID_00000129195529923796709910000003019621340185400980_);fill:#5400D8;" width="1917.5" height="896.6"/>
</g>
<text transform="matrix(1 0 0 1 -1939.2661 334.0276)"><tspan x="0" y="0" class="st9" style="font-family:'Hellix-Black'; font-size:67.4137px; letter-spacing:2;">COVIERTETE EN</tspan><tspan x="0" y="80.9" class="st9" style="font-family:'Hellix-Black'; font-size:67.4137px; letter-spacing:2;">DESARROLLADOR</tspan><tspan x="0" y="161.8" class="st9" style="font-family:'Hellix-Black'; font-size:67.4137px; letter-spacing:2;">WEB.</tspan></text>
<g>
	<text transform="matrix(1 0 0 1 -1444.0765 1076.4543)" style="font-family:'Hellix-Black'; font-size:50px; letter-spacing:2;">Últimos cursos publicados</text>
</g>
<g>
	<text transform="matrix(1 0 0 1 -1262.951 3226.2903)" style="font-family:'Hellix-Black'; font-size:50px; letter-spacing:2;">Categorías</text>
</g>
<g>
	<text transform="matrix(1 0 0 1 -1199.6993 4256.6597)" style="font-family:'Hellix-Black'; font-size:50px; letter-spacing:2;">FAQ´s</text>
</g>
<g>
	<text transform="matrix(1 0 0 1 -1725.4886 2257.7971)" style="font-family:'Hellix-Black'; font-size:50px; letter-spacing:2;">Accede a TODOS los cursos las veces que quieras</text>
</g>
<g>
	<text transform="matrix(1 0 0 1 -1939.2661 567.2933)"><tspan x="0" y="0" class="st9" style="font-family:'MusticaPro-SemiBold'; font-size:50px;">con nuestro curso de</tspan><tspan x="0" y="60" class="st9" style="font-family:'MusticaPro-SemiBold'; font-size:50px;">6 semanas intensivo.</tspan></text>
</g>
<path class="st2" d="M-1720.8,689.3H-1913c-13.6,0-24.6,11-24.6,24.6l0,0c0,13.6,11,24.6,24.6,24.6h192.2c13.6,0,24.6-11,24.6-24.6
	l0,0C-1696.2,700.3-1707.2,689.3-1720.8,689.3z"/>
<text transform="matrix(1 0 0 1 -1905.1562 720.9891)" class="st9" style="font-family:'MusticaPro-SemiBold'; font-size:23.6115px;">Más información</text>
<rect x="-2084.1" y="1786.8" class="st1" width="1917.6" height="296.7"/>
<g>
	<text transform="matrix(1 0 0 1 -1867.427 1991.754)" class="st9" style="font-family:'MusticaPro-SemiBold'; font-size:50px;">alumnos</text>
</g>
<g>
	<text transform="matrix(1 0 0 1 -1877.1647 1929.3719)"><tspan x="0" y="0" class="st9" style="font-family:'Hellix-Black'; font-size:50px; letter-spacing:2;">+ de </tspan><tspan x="115.1" y="0" class="st2" style="font-family:'Hellix-Black'; font-size:50px; letter-spacing:1;">3500</tspan></text>
</g>
<g>
	<text transform="matrix(1 0 0 1 -589.7017 1991.754)" class="st9" style="font-family:'MusticaPro-SemiBold'; font-size:50px;">cursos</text>
</g>
<g>
	<text transform="matrix(1 0 0 1 -599.4393 1929.3719)"><tspan x="0" y="0" class="st9" style="font-family:'Hellix-Black'; font-size:50px; letter-spacing:2;">+ de </tspan><tspan x="115.1" y="0" class="st2" style="font-family:'Hellix-Black'; font-size:50px; letter-spacing:2;">80</tspan></text>
</g>
<g>
	<text transform="matrix(1 0 0 1 -1351.863 1991.754)" class="st9" style="font-family:'MusticaPro-SemiBold'; font-size:50px;">horas de aprendizaje</text>
</g>
<text transform="matrix(1 0 0 1 -1457.1128 2317.2688)" class="st1" style="font-family:'MusticaPro-SemiBold'; font-size:32.4459px;">Sin salir de tu casa. Cancela cuando quieras.</text>
<g>
	<text transform="matrix(1 0 0 1 -1228.291 1929.3719)"><tspan x="0" y="0" class="st9" style="font-family:'Hellix-Black'; font-size:50px; letter-spacing:2;">+ de </tspan><tspan x="115.1" y="0" class="st2" style="font-family:'Hellix-Black'; font-size:50px; letter-spacing:1;">1800</tspan></text>
</g>
<path class="st11" d="M-1447.5,3017.8H-1834c-18.7,0-33.9-15.2-33.9-33.9V2500c0-18.7,15.2-33.9,33.9-33.9h386.6
	c18.7,0,33.9,15.2,33.9,33.9V2984C-1413.6,3002.7-1428.8,3017.8-1447.5,3017.8z"/>
<path class="st11" d="M-416,3017.8h-386.6c-18.7,0-33.9-15.2-33.9-33.9V2500c0-18.7,15.2-33.9,33.9-33.9H-416
	c18.7,0,33.9,15.2,33.9,33.9V2984C-382.2,3002.7-397.3,3017.8-416,3017.8z"/>
<path class="st1" d="M-920.4,3011.6h-409.3c-18.7,0-33.9-15.2-33.9-33.9v-511.5c0-18.7,15.2-33.9,33.9-33.9h409.3
	c18.7,0,33.9,15.2,33.9,33.9v511.5C-886.5,2996.5-901.7,3011.6-920.4,3011.6z"/>
<g>
	<path class="st2" d="M-1049,2907h-152.2c-13.6,0-24.6,11-24.6,24.6l0,0c0,13.6,11,24.6,24.6,24.6h152.2c13.6,0,24.6-11,24.6-24.6
		l0,0C-1024.4,2918-1035.4,2907-1049,2907z"/>
	<g>
		<text transform="matrix(1 0 0 1 -1188.6538 2938.9236)" style="font-family:'MusticaPro-SemiBold'; font-size:23.6115px;">¡Suscríbete!</text>
	</g>
</g>
<g>
	<path class="st1" d="M-1564.7,2927h-152.2c-13.6,0-24.6,11-24.6,24.6l0,0c0,13.6,11,24.6,24.6,24.6h152.2c13.6,0,24.6-11,24.6-24.6
		l0,0C-1540.1,2938-1551.1,2927-1564.7,2927z"/>
	
		<text transform="matrix(1 0 0 1 -1704.3643 2958.9236)" class="st9" style="font-family:'MusticaPro-SemiBold'; font-size:23.6115px;">¡Suscríbete!</text>
</g>
<g>
	<path class="st1" d="M-533.2,2927h-152.2c-13.6,0-24.6,11-24.6,24.6l0,0c0,13.6,11,24.6,24.6,24.6h152.2c13.6,0,24.6-11,24.6-24.6
		l0,0C-508.7,2938-519.7,2927-533.2,2927z"/>
	
		<text transform="matrix(1 0 0 1 -672.9435 2958.9236)" class="st9" style="font-family:'MusticaPro-SemiBold'; font-size:23.6115px;">¡Suscríbete!</text>
</g>
<path class="st12" d="M-920.4,3011.6h-409.3c-18.7,0-33.9-15.2-33.9-33.9v-511.5c0-18.7,15.2-33.9,33.9-33.9h409.3
	c18.7,0,33.9,15.2,33.9,33.9v511.5C-886.5,2996.5-901.7,3011.6-920.4,3011.6z"/>
<path class="st13" d="M-1187.3,2497.8H-1365v-29.5c0-20.7,16.8-37.5,37.5-37.5h154.1v53.1
	C-1173.4,2491.5-1179.6,2497.8-1187.3,2497.8z"/>
<g>
	
		<text transform="matrix(1 0 0 1 -1325.8604 2473.4832)" class="st9" style="font-family:'MusticaPro-SemiBold'; font-size:30.681px;">Popular</text>
</g>
<text transform="matrix(1 0 0 1 -1196.2119 2787.9114)" class="st9" style="font-family:'MusticaPro-SemiBold'; font-size:29.5044px;">8,99€/mes</text>
<text transform="matrix(1 0 0 1 -1784.7139 2807.1892)" style="font-family:'MusticaPro-SemiBold'; font-size:23.6115px;">Acceso a todos los Cursos.</text>
<text transform="matrix(1 0 0 1 -667.4559 2807.1892)" style="font-family:'MusticaPro-SemiBold'; font-size:23.6115px;">8,33€/mes</text>
<text transform="matrix(1 0 0 1 -1688.8367 2638.4109)" style="font-family:'MusticaPro-SemiBold'; font-size:35.3885px;">1 Mes </text>
<text transform="matrix(1 0 0 1 -1226.3706 2623.5872)" class="st9" style="font-family:'MusticaPro-SemiBold'; font-size:52.0343px;">3 Meses </text>
<text transform="matrix(1 0 0 1 -685.673 2638.4109)" style="font-family:'MusticaPro-SemiBold'; font-size:35.3885px;">12 Meses </text>
<text transform="matrix(1 0 0 1 -1738.0393 2721.8423)" class="st1" style="font-family:'Hellix-Black'; font-size:67.4137px; letter-spacing:2;">9,99€</text>
<text transform="matrix(1 0 0 1 -1275.4214 2715.7727)" class="st9" style="font-family:'Hellix-Black'; font-size:84.0993px; letter-spacing:3;">26,99€</text>
<text transform="matrix(1 0 0 1 -726.5981 2721.8423)" class="st1" style="font-family:'Hellix-Black'; font-size:67.4137px; letter-spacing:2;">99,99€</text>
<g>
	<rect x="-3154.9" y="1232" class="st1" width="132.1" height="132.1"/>
	<rect x="-3058.2" y="1232" class="st14" width="132.1" height="132.1"/>
	<rect x="-2961.5" y="1232" class="st13" width="132.1" height="132.1"/>
	<rect x="-2864.8" y="1232" class="st11" width="132.1" height="132.1"/>
	<rect x="-2768.1" y="1232" class="st9" width="132.1" height="132.1"/>
</g>
<g>
	<rect x="-2084.5" y="5149.2" class="st1" width="1918.9" height="437.4"/>
	
		<text transform="matrix(1 0 0 1 -2031.5103 5538.9453)" class="st9" style="font-family:'MusticaPro-SemiBold'; font-size:23.6115px;">Política de Privacidad</text>
	<g>
		
			<text transform="matrix(1 0 0 1 -1990.1637 5266.1372)" class="st11" style="font-family:'MusticaPro-SemiBold'; font-size:23.6115px;">Cursos</text>
		
			<text transform="matrix(1 0 0 1 -1990.1637 5316.5361)" class="st11" style="font-family:'MusticaPro-SemiBold'; font-size:23.6115px;">Convenios</text>
		
			<text transform="matrix(1 0 0 1 -1990.1637 5363.8511)" class="st11" style="font-family:'MusticaPro-SemiBold'; font-size:23.6115px;">Nosotros</text>
		
			<text transform="matrix(1 0 0 1 -1990.1637 5409.0889)" class="st11" style="font-family:'MusticaPro-SemiBold'; font-size:23.6115px;">Blog</text>
		
			<text transform="matrix(1 0 0 1 -1718.7368 5266.1372)" class="st11" style="font-family:'MusticaPro-SemiBold'; font-size:23.6115px;">Cursos</text>
		
			<text transform="matrix(1 0 0 1 -1718.7368 5316.5361)" class="st11" style="font-family:'MusticaPro-SemiBold'; font-size:23.6115px;">Convenios</text>
		
			<text transform="matrix(1 0 0 1 -1718.7368 5363.8511)" class="st11" style="font-family:'MusticaPro-SemiBold'; font-size:23.6115px;">Nosotros</text>
		
			<text transform="matrix(1 0 0 1 -1718.7368 5409.0889)" class="st11" style="font-family:'MusticaPro-SemiBold'; font-size:23.6115px;">Blog</text>
		
			<text transform="matrix(1 0 0 1 -1447.3101 5266.1372)" class="st11" style="font-family:'MusticaPro-SemiBold'; font-size:23.6115px;">Cursos</text>
		
			<text transform="matrix(1 0 0 1 -1447.3101 5316.5361)" class="st11" style="font-family:'MusticaPro-SemiBold'; font-size:23.6115px;">Convenios</text>
		
			<text transform="matrix(1 0 0 1 -1447.3101 5363.8511)" class="st11" style="font-family:'MusticaPro-SemiBold'; font-size:23.6115px;">Nosotros</text>
		
			<text transform="matrix(1 0 0 1 -1447.3101 5409.0889)" class="st11" style="font-family:'MusticaPro-SemiBold'; font-size:23.6115px;">Blog</text>
	</g>
	
		<text transform="matrix(1 0 0 1 -1746.4373 5538.9453)" class="st9" style="font-family:'MusticaPro-SemiBold'; font-size:23.6115px;">Condicines de Contratación</text>
	
		<text transform="matrix(1 0 0 1 -1395.9364 5538.9453)" class="st9" style="font-family:'MusticaPro-SemiBold'; font-size:23.6115px;">Politica de Cookies</text>
	
		<text transform="matrix(1 0 0 1 -1141.3445 5538.9453)" class="st9" style="font-family:'MusticaPro-SemiBold'; font-size:23.6115px;">Aviso Legal</text>
	<g>
		
			<rect x="-1197.6" y="5076.5" transform="matrix(0.7071 0.7071 -0.7071 0.7071 3311.4805 2303.6687)" class="st1" width="145.2" height="145.2"/>
		<g>
			<polygon class="st9" points="-1061.4,5139.6 -1094.5,5106.5 -1104.1,5116 -1070.9,5149.1 -1104.1,5182.3 -1094.5,5191.8 
				-1061.4,5158.7 -1051.8,5149.1 			"/>
			<polygon class="st9" points="-1188.7,5158.7 -1155.5,5191.8 -1146,5182.3 -1179.2,5149.1 -1146,5116 -1155.5,5106.5 
				-1188.7,5139.6 -1198.2,5149.1 			"/>
			<path class="st9" d="M-1110.8,5152.1c-1.7,7.9-11.1,13.1-18.9,9.9l27.6-27.7c-0.3-0.6-0.7-1.1-1-1.7
				c-4.7-7.1-12.6-11.6-21.9-11.6c-15,0-26.4,11.6-26.4,27.1c0,15.4,11.4,26.9,26.4,26.9c12.7,0,23.5-8.3,26.3-20.4L-1110.8,5152.1z
				 M-1129.5,5134.1c3.7-1.2,7.8-1,11.5,1.1l-19.5,19.6c-0.8-1.8-1.5-4.5-1.5-6.6C-1139,5141.3-1135.1,5136-1129.5,5134.1z"/>
		</g>
	</g>
	<path class="st9" d="M-469.4,5306.8c5.6-5.6,5.6-14.6,0-20.2c-5.6-5.6-14.6-5.6-20.2,0c-4.9,4.9-5.5,12.5-1.7,18.1l-11.7,11.7
		l4.3,4.3l11.8-11.8C-481.5,5312.2-474.2,5311.5-469.4,5306.8z M-485.7,5302.9c-3.4-3.4-3.4-9,0-12.5c3.4-3.4,9-3.4,12.5,0
		c3.4,3.4,3.4,9,0,12.5C-476.7,5306.3-482.3,5306.3-485.7,5302.9z"/>
	<path class="st9" d="M-232.9,5276.9h-192.2c-13.6,0-24.6,11-24.6,24.6l0,0c0,13.6,11,24.6,24.6,24.6h192.2
		c13.6,0,24.6-11,24.6-24.6l0,0C-208.4,5287.9-219.4,5276.9-232.9,5276.9z"/>
	<g>
		<rect x="-418.3" y="5505.6" class="st9" width="45.2" height="45.2"/>
		<rect x="-335.9" y="5505.6" class="st9" width="45.2" height="45.2"/>
		<rect x="-253.6" y="5505.6" class="st9" width="45.2" height="45.2"/>
	</g>
	<g>
		
			<text transform="matrix(1 0 0 1 -950.7537 5539.749)" class="st11" style="font-family:'MusticaPro-SemiBold'; font-size:23.6115px;">© Copyright Eplam 2022</text>
	</g>
</g>
<path class="st2" d="M-1649.6,3311.3h-311.3c-24.7,0-44.8,20.1-44.8,44.8v603.7c0,24.7,20.1,44.8,44.8,44.8h311.3
	c24.7,0,44.8-20.1,44.8-44.8v-603.7C-1604.8,3331.3-1624.9,3311.3-1649.6,3311.3z"/>
<path class="st2" d="M-1196.1,3311.3h-311.3c-24.7,0-44.8,20.1-44.8,44.8v603.7c0,24.7,20.1,44.8,44.8,44.8h311.3
	c24.7,0,44.8-20.1,44.8-44.8v-603.7C-1151.3,3331.3-1171.4,3311.3-1196.1,3311.3z"/>
<path class="st2" d="M-742.6,3311.3h-311.3c-24.7,0-44.8,20.1-44.8,44.8v603.7c0,24.7,20.1,44.8,44.8,44.8h311.3
	c24.7,0,44.8-20.1,44.8-44.8v-603.7C-697.8,3331.3-717.9,3311.3-742.6,3311.3z"/>
<path class="st2" d="M-289.1,3311.3h-311.3c-24.7,0-44.8,20.1-44.8,44.8v603.7c0,24.7,20.1,44.8,44.8,44.8h311.3
	c24.7,0,44.8-20.1,44.8-44.8v-603.7C-244.3,3331.3-264.4,3311.3-289.1,3311.3z"/>
<g>
	<text transform="matrix(1 0 0 1 -1884.1282 3958.1416)" style="font-family:'MusticaPro-SemiBold'; font-size:35.3885px;">Hardware</text>
</g>
<g>
	<text transform="matrix(1 0 0 1 -1466.7419 3958.1418)" style="font-family:'MusticaPro-SemiBold'; font-size:35.3885px;">Programación</text>
</g>
<g>
	<text transform="matrix(1 0 0 1 -1023.0256 3958.1416)" style="font-family:'MusticaPro-SemiBold'; font-size:35.3885px;">Ciberseguridad</text>
</g>
<g>
	<text transform="matrix(1 0 0 1 -615.3723 3958.1416)" style="font-family:'MusticaPro-SemiBold'; font-size:35.3885px;">Sistemas Operativos</text>
</g>
<g>
	<g>
		<text transform="matrix(1 0 0 1 -1677.8621 4398.1758)" style="font-family:'MusticaPro-SemiBold'; font-size:35.3885px;">¿Habrá Cursos nuevos?</text>
	</g>
	<polygon class="st11" points="-1257.6,4382.9 -1276.4,4364.1 -1281.8,4369.5 -1263,4388.3 -1281.8,4407 -1276.4,4412.4 
		-1257.6,4393.7 -1252.3,4388.3 	"/>
	<polygon class="st11" points="-1715.9,4393.7 -1697.2,4412.4 -1691.8,4407 -1710.5,4388.3 -1691.8,4369.5 -1697.2,4364.1 
		-1715.9,4382.9 -1721.3,4388.3 	"/>
	<g>
		<text transform="matrix(1 0 0 1 -1677.8621 4471.5435)" style="font-family:'MusticaPro-SemiBold'; font-size:35.3885px;">¿Cómo funciona una suscripción en Eplam?</text>
	</g>
	<polygon class="st11" points="-933.7,4456.2 -952.5,4437.5 -957.9,4442.9 -939.1,4461.6 -957.9,4480.4 -952.5,4485.8 -933.7,4467 
		-928.4,4461.6 	"/>
	<polygon class="st11" points="-1715.9,4467 -1697.2,4485.8 -1691.8,4480.4 -1710.5,4461.6 -1691.8,4442.9 -1697.2,4437.5 
		-1715.9,4456.2 -1721.3,4461.6 	"/>
	<g>
		<text transform="matrix(1 0 0 1 -1677.8621 4544.9116)" style="font-family:'MusticaPro-SemiBold'; font-size:35.3885px;">¿Puedo pagar en otra moneda que no sean Euros y desde otro país?</text>
	</g>
	<polygon class="st11" points="-534.1,4529.6 -552.9,4510.8 -558.3,4516.2 -539.5,4535 -558.3,4553.8 -552.9,4559.2 -534.1,4540.4 
		-528.7,4535 	"/>
	<polygon class="st11" points="-1715.9,4540.4 -1697.2,4559.2 -1691.8,4553.8 -1710.5,4535 -1691.8,4516.2 -1697.2,4510.8 
		-1715.9,4529.6 -1721.3,4535 	"/>
	<g>
		<text transform="matrix(1 0 0 1 -1677.8621 4618.2793)" style="font-family:'MusticaPro-SemiBold'; font-size:35.3885px;">¿Recibire algún título?</text>
	</g>
	<polygon class="st11" points="-1277.6,4603 -1296.4,4584.2 -1301.8,4589.6 -1283,4608.4 -1301.8,4627.2 -1296.4,4632.5 
		-1277.6,4613.8 -1272.3,4608.4 	"/>
	<polygon class="st11" points="-1715.9,4613.8 -1697.2,4632.5 -1691.8,4627.2 -1710.5,4608.4 -1691.8,4589.6 -1697.2,4584.2 
		-1715.9,4603 -1721.3,4608.4 	"/>
	<g>
		<text transform="matrix(1 0 0 1 -1677.8621 4691.647)" style="font-family:'MusticaPro-SemiBold'; font-size:35.3885px;">¿Dónde pido ayuda?</text>
	</g>
	<polygon class="st11" points="-1297.6,4676.3 -1316.4,4657.6 -1321.8,4663 -1303,4681.7 -1321.8,4700.5 -1316.4,4705.9 
		-1297.6,4687.1 -1292.3,4681.7 	"/>
	<polygon class="st11" points="-1715.9,4687.1 -1697.2,4705.9 -1691.8,4700.5 -1710.5,4681.7 -1691.8,4663 -1697.2,4657.6 
		-1715.9,4676.3 -1721.3,4681.7 	"/>
	<g>
		<text transform="matrix(1 0 0 1 -1677.8621 4765.0151)" style="font-family:'MusticaPro-SemiBold'; font-size:35.3885px;">¿Dónde cancelo mi suscripción?</text>
	</g>
	<polygon class="st11" points="-1128.6,4749.7 -1147.4,4730.9 -1152.8,4736.3 -1134,4755.1 -1152.8,4773.9 -1147.4,4779.3 
		-1128.6,4760.5 -1123.3,4755.1 	"/>
	<polygon class="st11" points="-1715.9,4760.5 -1697.2,4779.3 -1691.8,4773.9 -1710.5,4755.1 -1691.8,4736.3 -1697.2,4730.9 
		-1715.9,4749.7 -1721.3,4755.1 	"/>
	<g>
		<text transform="matrix(1 0 0 1 -1677.8621 4838.3828)" style="font-family:'MusticaPro-SemiBold'; font-size:35.3885px;">¿Puedo comprar un solo curso?</text>
	</g>
	<polygon class="st11" points="-1139.5,4823.1 -1158.3,4804.3 -1163.7,4809.7 -1144.9,4828.5 -1163.7,4847.3 -1158.3,4852.6 
		-1139.5,4833.9 -1134.1,4828.5 	"/>
	<polygon class="st11" points="-1715.9,4833.9 -1697.2,4852.6 -1691.8,4847.3 -1710.5,4828.5 -1691.8,4809.7 -1697.2,4804.3 
		-1715.9,4823.1 -1721.3,4828.5 	"/>
</g>
<g>
	<polygon class="st1" points="799.2,649.2 723,573 701.1,594.9 777.3,671.1 701.1,747.3 723,769.2 799.2,693 821.1,671.1 	"/>
	<polygon class="st1" points="506.6,693 582.8,769.2 604.7,747.3 528.5,671.1 604.7,594.9 582.8,573 506.6,649.2 484.7,671.1 	"/>
	<path d="M685.6,677.9c-3.9,18.2-25.5,30-43.4,22.8l63.5-63.6c-0.7-1.3-1.5-2.6-2.3-3.8c-10.8-16.3-29-26.6-50.2-26.6
		c-34.5,0-60.7,26.7-60.7,62.2c0,35.5,26.2,61.9,60.7,61.9c29.3,0,54.1-19.1,60.3-46.8L685.6,677.9z M642.7,636.4
		c8.5-2.9,18-2.3,26.4,2.6l-44.9,44.9c-1.9-4.1-3.4-10.3-3.4-15.1C620.9,653.1,629.7,640.8,642.7,636.4z"/>
</g>
<g>
	<path class="st1" d="M193.9,39.4c-56.4,0-102.2,45.9-102.2,102.2s45.9,102.2,102.2,102.2c56.4,0,102.2-45.8,102.2-102.2
		S250.2,39.4,193.9,39.4z M163.4,160.6c-12.4-9.3-20.4-24.1-20.4-40.7c0-28.1,22.8-50.9,50.9-50.9c28.1,0,50.9,22.8,50.9,50.9
		c0,16.7-8,31.5-20.4,40.7c16,5.5,30,15.2,40.7,27.8c-15.2,23.2-41.5,38.5-71.2,38.5c-29.8,0-56-15.3-71.2-38.5
		C133.4,175.7,147.4,166.1,163.4,160.6z"/>
</g>
</svg>
